<?xml version="1.0" standalone="no"?>
<!DOCTYPE svg PUBLIC "-//W3C//DTD SVG 20010904//EN"
 "http://www.w3.org/TR/2001/REC-SVG-20010904/DTD/svg10.dtd">
<svg version="1.0" xmlns="http://www.w3.org/2000/svg"
 width="55" height="55" viewBox="0 0 500.000000 500.000000"
 preserveAspectRatio="xMidYMid meet">

<g transform="translate(0.000000,500.000000) scale(0.100000,-0.100000)"
fill="#dd0031" stroke="none">
<path d="M1570 4068 c-509 -182 -926 -332 -928 -333 -2 -2 279 -2459 282
-2461 0 0 356 -197 789 -437 l788 -436 787 436 c433 239 788 436 788 437 2 1
40 328 105 896 117 1017 160 1397 170 1473 6 49 9 90 7 92 -3 4 -1858 665
-1861 664 -1 0 -418 -149 -927 -331z m1504 -1401 c313 -705 573 -1290 578
-1300 8 -16 -5 -17 -210 -17 l-218 0 -115 287 -115 288 -495 3 -495 2 -115
-287 -115 -288 -218 -3 c-205 -2 -218 -1 -212 15 24 62 1152 2583 1156 2583 3
0 261 -577 574 -1283z"/>
<path d="M2329 2697 l-167 -402 169 -3 c93 -1 245 -1 338 0 l169 3 -167 402
c-91 221 -168 402 -171 402 -3 0 -80 -181 -171 -402z"/>
</g>
</svg>
