<svg width="50" height="50" viewBox="0 0 100 100" fill="none" xmlns="http://www.w3.org/2000/svg">
<g clip-path="url(#clip0)">
<path d="M50.2117 50.883H49.7867V50.458H50.2117V50.883Z" fill="#543C32"/>
<path d="M90.5514 93.0761C89.6181 91.059 87.0685 88.07 84.2359 87.2442C80.7343 86.223 72.8302 84.9883 69.8994 84.302C67.55 83.7512 62.818 79.502 61.1597 78.0757C60.8622 77.8207 60.6186 77.2942 60.6127 76.9027C60.5536 72.2855 62.3956 60.02 62.3956 60.02H49.9992H37.6032C37.6032 60.02 39.4451 72.2851 39.3852 76.9027C39.3805 77.2942 39.1357 77.8207 38.8391 78.0757C37.1807 79.502 32.4488 83.7512 30.0994 84.302C27.1682 84.9883 19.264 86.265 15.7629 87.2863C12.9294 88.1117 10.3807 91.0586 9.44739 93.0757C7.87149 96.4791 7.49919 102.638 7.49919 107.951H49.9992H92.4991C92.4991 102.639 92.1264 96.4795 90.5514 93.0761Z" fill="#F0C7B1"/>
<path d="M75.1404 86.3951C85.4858 87.9004 89.8395 90.096 91.2029 107.952H92.4991C92.4991 102.639 92.1264 96.4799 90.5514 93.0765C89.6181 91.0595 87.0685 88.0705 84.2359 87.2447C80.7343 86.2234 72.8301 84.9888 69.8993 84.3024C67.55 83.7516 62.1465 79.1731 60.7011 77.3537C62.1291 79.3529 66.1372 83.9858 69.649 85.1992C71.329 85.7797 72.7281 86.044 75.1404 86.3951ZM30.3497 85.1992C33.8615 83.9862 37.8692 79.3529 39.2977 77.3537C37.8527 79.1727 32.4492 83.7516 30.0994 84.3024C27.1686 84.9888 19.2645 86.2655 15.7629 87.2868C12.9303 88.1121 10.3807 91.059 9.44739 93.0761C7.87234 96.4795 7.49961 102.639 7.49961 107.951H8.79586C10.1508 90.2099 14.5227 87.8983 24.8583 86.3947C27.2702 86.0441 28.6697 85.7797 30.3497 85.1992Z" fill="#FFE4D6"/>
<path d="M48.1487 92.1589C48.1487 92.1589 45.9923 91.4751 45.1384 91.1479C40.6976 89.444 26.2706 88.3399 26.2706 88.3399C26.2706 88.3399 41.466 88.943 44.8193 89.521C44.6246 87.495 43.537 81.0193 43.537 81.0193C43.537 81.0193 45.7254 88.1656 46.2609 89.9685C46.5473 90.9324 48.1487 92.1589 48.1487 92.1589ZM52.7383 91.5886C52.7005 91.6196 52.6571 91.66 52.6099 91.7025C52.658 91.6664 52.7013 91.6285 52.7383 91.5886ZM48.1487 92.1589C48.1487 92.1589 49.3782 93.4305 49.9962 93.4467C50.8079 93.4684 52.0481 92.2146 52.6104 91.7025C52.0727 92.1092 50.8428 92.2937 50.3536 92.3128C49.7884 92.3345 48.1487 92.1589 48.1487 92.1589ZM57.0814 88.9634C56.4247 89.0688 55.2173 89.2987 55.2173 89.2987L56.1893 82.9704C55.9147 84.2756 54.2878 89.8601 52.7383 91.5886C53.55 90.9018 55.3554 90.5724 56.276 90.4394C60.6263 89.8087 60.6246 89.8091 73.7273 88.3399C73.7273 88.3399 61.3722 88.274 57.0814 88.9634Z" fill="#E1AC8F"/>
<path d="M90.5514 93.0761C89.6181 91.059 87.0685 88.07 84.2359 87.2442C80.7343 86.223 72.8302 84.9883 69.8994 84.302C67.55 83.7512 62.818 79.502 61.1597 78.0757C60.8622 77.8207 60.6186 77.2942 60.6127 76.9027C60.5536 72.2855 62.3956 60.02 62.3956 60.02H49.9992H37.6032C37.6032 60.02 39.4451 72.2851 39.3852 76.9027C39.3805 77.2942 39.1357 77.8207 38.8391 78.0757C37.1807 79.502 32.4488 83.7512 30.0994 84.302C27.1682 84.9883 19.264 86.265 15.7629 87.2863C12.9294 88.1117 10.3807 91.0586 9.44739 93.0757C7.87149 96.4791 7.49919 102.638 7.49919 107.951H49.9992H92.4991C92.4991 102.639 92.1264 96.4795 90.5514 93.0761Z" stroke="#C27B55" stroke-width="0.6375"/>
<path d="M60.3148 77.1258C60.3029 77.0515 60.2944 76.9775 60.2931 76.907C60.2531 73.7705 61.0662 67.2506 61.6097 63.2738C54.9377 62.4306 45.0615 62.4345 38.389 63.2806C38.9326 67.2582 39.7448 73.7726 39.704 76.907C39.7035 76.9575 39.698 77.0102 39.6912 77.0629C41.3168 78.587 42.9497 79.8373 44.3896 80.5271C46.6472 81.6092 53.3295 81.5586 55.61 80.5271C57.0597 79.8722 58.693 78.6405 60.3148 77.1258Z" fill="url(#paint0_linear)"/>
<path d="M91.5633 93.8275C87.1101 85.2093 78.5358 86.4308 70.3269 84.1192C70.128 85.6428 64.6952 92.8228 63.4049 96.8951C62.6803 96.2904 61.8154 95.482 61.1911 94.7421C58.1362 91.1538 53.6087 79.5441 52.0893 88.6102C52.4195 84.5404 54.2156 83.6436 56.7095 87.0551C59.3904 90.7263 59.4898 92.6218 63.3148 96.6138C63.9906 93.8084 65.4534 91.8287 67.1551 89.3446C68.802 86.9378 70.0047 85.8524 70.1807 83.7099C69.5666 82.6865 69.7136 82.2284 68.7213 81.5654C62.4929 77.3528 66.9396 73.0781 61.294 72.0603C61.2498 72.5694 61.1941 73.1398 61.1473 73.5686C62.3548 74.19 62.716 76.6082 60.8571 78.3787C57.9029 81.6219 53.1561 81.783 51.9185 86.761L51.9155 86.7606C51.5215 88.2383 51.2062 90.5002 51.0566 91.8262L50.0132 102.408L48.9634 92.0136C48.1122 84.211 46.9995 83.4477 43.3607 81.0367C40.9496 79.4387 37.0099 77.0277 38.2959 74.3017C38.4426 73.9864 38.6211 73.7926 38.8425 73.6468C38.7787 73.0237 38.7413 72.6625 38.692 72.0837C34.0311 72.2821 34.7476 78.876 31.218 81.3019C30.2928 81.9377 29.821 82.5255 29.4891 83.4817C29.7148 86.1511 35.6533 92.184 36.6907 96.6138C40.5518 92.5372 40.5816 90.756 43.2782 87.0687C45.6008 83.8961 47.4976 84.2216 47.8967 88.515C47.6774 87.2251 47.158 85.2506 46.0326 85.2506C45.1053 85.2506 44.1388 86.6182 43.6607 87.2782C40.9836 90.9664 40.5535 93.6044 36.5857 96.8973C36.3112 96.0723 35.989 95.2436 35.6048 94.4722C34.0323 91.2958 29.7743 84.8863 29.2902 84.265C27.4083 84.7945 24.54 85.381 22.8162 85.6675C11.552 87.5422 7.18554 91.1793 5.52506 108.206C46.8359 107.787 63.6697 107.969 94.4393 107.969C94.0546 104.181 93.2986 97.1909 91.5633 93.8275Z" fill="black"/>
<path d="M66.986 89.2532C65.515 91.4012 64.3506 93.2057 63.6251 95.4671C64.4611 90.8011 69.7604 86.3832 69.1866 83.5931C68.941 82.398 64.7131 79.7336 64.4942 75.7731C65.6608 79.4017 70.0158 81.9917 70.023 83.7303C70.0345 86.5753 69.9495 84.9233 66.986 89.2532ZM94.4057 107.632C94.5532 103.942 93.3126 96.7591 91.7749 93.7782C87.3218 85.16 78.3607 86.2595 70.1522 83.9479C70.0796 84.0406 70.3605 84.6534 70.1637 84.9169C89.352 88.4529 91.5369 92.6677 94.4057 107.632ZM31.2193 81.3023C33.5767 79.3486 34.2835 77.4561 34.8245 75.7726C33.6133 82.6916 31.8024 80.0749 30.481 83.5399C29.7254 85.5217 35.5823 90.9362 36.3741 95.4667C35.3362 93.6923 34.2236 91.5087 32.7527 89.3607C31.6077 87.6875 30.8784 86.1575 29.7441 84.8698C29.2035 82.0167 30.32 82.0478 31.2193 81.3023ZM29.7437 84.8702C29.5469 84.6067 29.3637 84.3585 29.2911 84.2658C21.0826 86.577 12.8886 85.16 8.43589 93.7786C6.89781 96.7596 6.12984 102.858 5.70611 106.556C6.52594 102.062 7.74781 96.4013 10.3654 92.986C14.8041 86.965 22.9947 85.8031 29.7437 84.8702Z" fill="#0F0F0F"/>
<path d="M58.4346 81.012C56.3678 82.2105 54.6176 83.3869 53.4565 85.0415C56.2475 85.1953 58.3105 90.1835 58.8685 90.8618C53.627 83.5663 51.6435 88.5243 51.006 93.1704C51.1896 91.6634 51.3405 89.0921 51.638 87.9884C51.7247 87.5494 51.8177 87.1295 51.9159 86.7606L51.9189 86.761C53.1565 81.783 57.9033 81.6219 60.8575 78.3787C62.7164 76.6082 62.3548 74.19 61.1478 73.5686C61.1941 73.1398 61.2502 72.5694 61.2944 72.0603C61.6042 72.1168 61.8805 72.1844 62.1367 72.2596C65.9443 75.609 61.0322 79.8497 58.4346 81.012ZM41.0593 81.012C43.1265 82.2105 45.6544 83.6309 46.8121 85.1418C44.7729 84.7707 42.5064 87.8167 41.3729 90.5082C46.2604 84.2748 47.7479 87.8167 49.3064 93.1709C49.1232 91.6642 48.6587 89.0926 48.3612 87.9888C48.2745 87.5498 48.1819 87.1299 48.0833 86.761L48.0807 86.7614C46.8431 81.7834 42.2659 81.6223 39.3117 78.3792C37.4527 76.6086 37.7723 74.1904 38.9798 73.569C38.9334 73.1402 38.8778 72.5698 38.8336 72.0607C38.5237 72.1172 38.2475 72.1848 37.9912 72.26C34.8003 76.1564 38.7248 79.5959 41.0593 81.012Z" fill="black"/>
<path d="M60.9965 77.5827C61.0096 75.1598 60.9289 76.5041 61.1741 73.762C62.1193 74.269 62.2396 76.3502 60.9965 77.5827ZM39.0082 77.3536C38.021 76.0616 37.899 74.742 38.8608 73.7454C39.0911 75.895 38.9742 75.6358 39.0082 77.3536Z" fill="black"/>
<path d="M70.2394 83.3593C70.1518 81.854 66.9188 80.5985 65.4845 77.3349C64.4572 75.0102 65.4322 72.348 61.2068 71.92C60.9752 73.2745 60.7699 76.252 60.8316 77.6911C58.6904 79.9959 55.3784 80.5921 53.2729 83.0703C51.0255 85.7155 50.0514 91.4428 50.0145 103.329L50.5381 102.988C50.5381 102.988 51.1212 91.7322 51.1254 91.6991C52.4361 80.4676 56.6028 83.1205 60.8915 78.4123C62.8129 76.5712 62.3539 74.1317 61.1983 73.5405C61.2485 73.0645 61.2952 72.5932 61.3365 72.1168C64.9711 72.7845 63.9328 74.9239 65.0697 77.5368C66.581 81.0108 69.4459 81.7694 69.6308 83.4541C69.924 86.1235 68.3311 87.2566 66.7335 89.5885C64.2205 93.2261 63.6395 95.0817 63.2906 96.5194C59.4762 92.5134 59.4741 90.7573 56.7465 87.0258C53.8378 83.0452 51.9274 84.9118 51.1254 91.6991C51.2079 90.5835 52.7277 84.3997 54.5437 85.4724C56.6428 86.6956 58.7049 91.8933 61.1571 94.774C61.8112 95.5487 62.6535 96.3261 63.4287 96.9763C64.8767 91.9201 70.2287 86.5787 70.4021 84.1392C78.7725 86.5005 93.1137 84.0776 94.3895 107.923C76.9059 108.017 57.9182 107.634 5.57734 108.159C6.33596 100.323 7.61904 92.643 12.2596 89.1814C14.2507 87.6909 16.5593 86.9115 18.9372 86.4155C22.2509 85.7287 25.9591 85.2871 29.2447 84.398C29.5796 84.823 35.2818 93.4072 36.5649 96.9767C41.1817 93.363 43.0279 86.5817 45.5698 85.4108C47.3395 84.5978 48.7824 90.4844 48.8648 91.5958C48.1721 84.4171 45.9111 82.0682 41.6296 89.5035C39.5199 93.1687 38.9606 94.1624 36.7166 96.5203C35.8156 92.6978 29.5363 85.4898 29.8091 83.4889C30.0786 81.5144 32.4926 82.0597 34.1008 77.8602C35.0026 75.5057 34.8029 72.9098 38.6517 72.1419C38.6933 72.6378 38.7439 73.1279 38.7945 73.6234C37.7409 74.3166 37.4731 76.6456 39.1566 78.2738C40.6725 80.0099 43.4083 81.0006 45.2149 82.3861C47.3446 84.0295 48.187 85.7125 48.8648 91.5958C48.8797 91.7242 49.4471 103.046 49.4471 103.046L50.0136 103.33C49.7301 91.5006 48.5962 84.3882 46.3072 82.395C44.3301 80.6312 40.8778 79.5067 39.2025 77.5377C39.2535 76.0604 38.9623 73.0675 38.7804 71.94C34.9516 72.3302 34.8432 74.7611 34.0221 76.8836C31.827 82.5578 29.7152 80.9326 29.3654 83.2837C29.3327 83.5034 29.3833 83.6687 29.4364 83.9611C26.2149 84.619 22.1944 85.0504 18.964 85.6411C14.1432 86.5213 9.59486 89.0658 7.52086 93.9082C5.94539 97.5832 5.48894 104.13 5.37334 108.164C5.36866 108.193 5.36866 108.226 5.36866 108.255C5.43326 108.26 5.50211 108.26 5.56671 108.26C61.0186 108.85 94.1575 108.015 94.6186 108.015C94.781 85.3368 82.385 86.3288 70.2394 83.3593ZM61.039 77.4556C61.0458 76.2091 61.0836 74.7658 61.1741 73.762C61.8533 74.2465 62.3807 75.8568 61.039 77.4556ZM38.9866 77.2725C37.8595 75.7973 38.3066 74.3672 38.8183 73.8725C38.9249 74.8695 38.967 76.2656 38.9866 77.2725Z" fill="black"/>
<path d="M27.7674 43.4795C27.0925 42.4697 24.3568 40.1504 22.7936 40.507C20.9428 40.929 20.3678 42.3651 20.4124 43.2589C20.6699 48.3695 22.2934 48.3657 23.2641 50.3309C23.9905 51.801 24.5927 52.4746 25.0372 55.413C25.2914 57.0931 26.9187 58.3812 28.1044 58.3179C29.7653 58.2287 31.0769 56.7386 31.6281 55.2694C32.7709 52.2187 29.5239 46.1081 27.7674 43.4795Z" fill="#F0C7B1" stroke="#C27B55" stroke-width="0.6375"/>
<path d="M25.8906 50.8133C25.8269 50.5778 25.8643 50.1728 25.9008 49.7805C25.9335 49.4235 26.512 48.1281 26.4737 47.8935C26.3275 47.0146 25.653 45.369 25.2204 44.4803C24.7236 43.4591 23.6887 42.1815 22.7597 41.8972C22.3755 41.779 21.2811 41.9142 21.1527 42.1688C20.6721 43.1212 20.8914 44.0434 21.6202 46.508C21.9815 47.729 23.2841 49.146 23.3194 49.2875C23.7728 51.1333 25.4864 54.0832 26.0768 54.7441C26.1856 54.8665 26.2973 54.9362 26.3228 54.9039C26.3479 54.8712 26.2786 54.7475 26.1694 54.6251C25.5863 53.9676 23.8884 51.0249 23.4511 49.2437C22.987 47.3542 24.4341 44.4217 24.6964 43.8037C24.8574 44.0766 24.9951 44.3397 25.1018 44.559C25.186 44.7315 25.279 44.9334 25.3759 45.1523C25.22 45.4753 23.5718 47.8582 24.0899 49.6598C24.2816 50.3241 24.9628 51.6114 25.5485 52.2893C25.7538 52.5269 25.928 52.594 26.0542 52.8137C26.1992 53.0683 26.3653 53.3573 26.8158 53.5473C26.9072 53.586 26.9892 53.5987 27.0611 53.5945C27.1856 53.586 27.2778 53.526 27.3445 53.4559C27.3569 53.5711 27.3632 53.7181 27.3662 53.8554C27.3692 54.0309 27.3972 54.175 27.4351 54.1763C27.4729 54.1776 27.5065 54.0348 27.5035 53.8592C27.4997 53.6429 27.4865 53.3747 27.4474 53.2485C27.3314 52.8775 27.0105 52.4699 26.6701 52.0398C26.3347 51.6165 25.9888 51.1775 25.8906 50.8133ZM23.2072 48.392C22.2097 45.511 22.562 42.5831 22.7384 42.1688C23.31 42.1688 24.344 43.2291 24.6071 43.6554C24.4456 44.0196 23.1549 46.4162 23.2072 48.392ZM26.8617 53.3964C26.4533 53.2251 26.308 52.971 26.1669 52.7249C26.0398 52.5022 25.7342 52.2906 25.5948 52.1393C25.5136 52.0504 25.3691 51.8133 25.2909 51.7602C24.5421 48.5276 25.8626 47.3478 26.1269 47.1005C26.2251 47.4103 26.3016 47.695 26.3394 47.9245C26.3743 48.1353 25.7954 49.4341 25.7648 49.7635C25.727 50.1719 25.6875 50.594 25.7597 50.8613C25.8672 51.2599 26.2242 51.7113 26.5689 52.1482C26.8749 52.5358 27.189 52.9353 27.305 53.2698C27.2655 53.3403 27.1359 53.512 26.8617 53.3964Z" fill="#C27B55"/>
<path d="M72.12 43.4795C72.7949 42.4697 75.5306 40.1504 77.0929 40.507C78.9446 40.929 79.5192 42.3651 79.4746 43.2589C79.2175 48.3695 77.5935 48.3657 76.6233 50.3309C75.8961 51.801 75.2943 52.4746 74.8493 55.413C74.5952 57.0931 72.9674 58.3812 71.7821 58.3179C70.1212 58.2287 68.8097 56.7386 68.2584 55.2694C67.116 52.2187 70.3634 46.1081 72.12 43.4795Z" fill="#F0C7B1" stroke="#C27B55" stroke-width="0.6375"/>
<path d="M73.2182 52.0398C72.8778 52.4703 72.5565 52.8779 72.4404 53.2485C72.4013 53.3747 72.3882 53.6429 72.3848 53.8592C72.3814 54.0348 72.4154 54.1776 72.4528 54.1763C72.491 54.175 72.5182 54.0309 72.5216 53.8554C72.525 53.7181 72.5305 53.5707 72.5433 53.4559C72.6096 53.526 72.7018 53.5864 72.8263 53.5945C72.8986 53.5987 72.9798 53.5855 73.072 53.5473C73.5229 53.3577 73.6878 53.0687 73.8332 52.8137C73.9594 52.594 74.1345 52.5269 74.3393 52.2893C74.9246 51.6118 75.6058 50.3241 75.7979 49.6598C76.316 47.8582 74.6674 45.4753 74.5115 45.1523C74.6088 44.9334 74.7014 44.7319 74.7856 44.559C74.8927 44.3397 75.0304 44.0762 75.1915 43.8037C75.4537 44.4217 76.9004 47.3542 76.4367 49.2437C75.9994 51.0249 74.3011 53.9676 73.7184 54.6251C73.6096 54.7475 73.5399 54.8712 73.565 54.9039C73.5909 54.9362 73.7018 54.8665 73.8106 54.7441C74.4018 54.0828 76.115 51.1333 76.5689 49.2875C76.6037 49.146 77.9059 47.729 78.2672 46.508C78.9961 44.0434 79.2158 43.1212 78.7355 42.1688C78.6068 41.9142 77.5128 41.779 77.1278 41.8972C76.1987 42.1815 75.1647 43.4591 74.6674 44.4803C74.2348 45.3686 73.5603 47.0146 73.4141 47.8935C73.3759 48.1281 73.9543 49.4235 73.987 49.7805C74.0236 50.1724 74.0618 50.5774 73.9976 50.8133C73.8978 51.1775 73.5527 51.6165 73.2182 52.0398ZM75.2799 43.6554C75.5429 43.2291 76.5774 42.1688 77.1482 42.1688C77.325 42.5831 77.6769 45.511 76.679 48.392C76.7325 46.4162 75.4409 44.0196 75.2799 43.6554ZM72.5824 53.2698C72.6984 52.9349 73.0125 52.5354 73.3185 52.1482C73.6632 51.7113 74.0197 51.2599 74.1277 50.8613C74.1991 50.594 74.16 50.1715 74.1217 49.7635C74.092 49.4341 73.5123 48.1353 73.5471 47.9245C73.5854 47.695 73.6619 47.4103 73.7596 47.1005C74.0244 47.3478 75.3445 48.5276 74.5956 51.7602C74.5174 51.8133 74.3733 52.0504 74.2917 52.1393C74.1523 52.2906 73.8468 52.5022 73.7197 52.7249C73.5786 52.971 73.4332 53.2251 73.0248 53.3964C72.7507 53.512 72.6219 53.3403 72.5824 53.2698Z" fill="#C27B55"/>
<path d="M68.7008 62.1442C66.5746 66.4898 60.1809 74.2299 55.6104 76.2822C53.3299 77.3073 46.6476 77.3575 44.39 76.2822C39.8655 74.1287 33.4399 66.483 31.2996 62.1442C28.9141 57.3102 24.9879 41.5092 24.9828 41.4862C24.4303 39.3663 24.1345 37.1406 24.1311 34.8464C24.109 20.3964 35.6716 8.6673 49.9592 8.6452C64.2481 8.62268 75.8472 20.3144 75.8685 34.764C75.8723 37.059 75.5841 39.2851 75.0389 41.4072C75.0321 41.4293 71.0791 57.283 68.7008 62.1442Z" fill="#F0C7B1"/>
<path d="M54.3138 9.01283C65.7862 11.7065 74.33 22.1088 74.3108 34.5294C74.307 36.824 74.0116 39.0493 73.4591 41.1696C73.454 41.1925 69.7999 56.9987 67.4539 61.828C65.3888 66.0797 59.0814 73.5019 54.6754 75.6494C53.7562 76.0978 50.9805 76.3103 50 76.3103C49.0195 76.3103 46.2443 76.0978 45.325 75.6494C40.919 73.5019 34.6112 66.0797 32.5465 61.828C30.2001 56.9987 26.546 41.1925 26.5413 41.1696C25.9888 39.0497 25.693 36.824 25.6896 34.5294C25.6705 22.1088 34.2134 11.7065 45.6867 9.01283C33.4369 11.0932 24.1111 21.8691 24.1311 34.8464C24.1345 37.1406 24.4303 39.3663 24.9828 41.4862C24.9879 41.5092 28.9064 57.3136 31.2996 62.1442C33.4467 66.4787 39.8876 74.0803 44.39 76.2822C45.5197 76.8351 48.3446 77.0706 49.8955 77.0697C51.445 77.071 54.4816 76.8351 55.6104 76.2822C60.1129 74.0799 66.5533 66.4792 68.7008 62.1442C71.094 57.3136 75.0129 41.5092 75.0172 41.4862C75.5697 39.3663 75.8655 37.1406 75.8689 34.8464C75.8893 21.8691 66.5635 11.0932 54.3138 9.01283Z" fill="#E8B9A0"/>
<path d="M68.7008 62.1442C66.5746 66.4898 60.1809 74.2299 55.6104 76.2822C53.3299 77.3073 46.6476 77.3575 44.39 76.2822C39.8655 74.1287 33.4399 66.483 31.2996 62.1442C28.9141 57.3102 24.9879 41.5092 24.9828 41.4862C24.4303 39.3663 24.1345 37.1406 24.1311 34.8464C24.109 20.3964 35.6716 8.6673 49.9592 8.6452C64.2481 8.62268 75.8472 20.3144 75.8685 34.764C75.8723 37.059 75.5841 39.2851 75.0389 41.4072C75.0321 41.4293 71.0791 57.283 68.7008 62.1442Z" stroke="#C27B55" stroke-width="0.6375"/>
<path d="M50.1437 68.4886C49.4951 68.4886 48.8695 68.4066 48.4862 68.2561C48.3769 68.2128 48.323 68.0895 48.3659 67.9807C48.4088 67.8715 48.5316 67.8179 48.6413 67.8604C49.3485 68.138 51.1297 68.1477 51.9155 67.7784C52.0222 67.7287 52.1484 67.7741 52.1981 67.88C52.2483 67.9862 52.2028 68.1129 52.0965 68.1626C51.6205 68.3861 50.8679 68.4886 50.1437 68.4886ZM56.3848 64.8841C56.5539 64.8115 56.633 64.6155 56.5603 64.446C56.4876 64.2764 56.2904 64.1982 56.1221 64.2704C51.1641 66.392 43.9068 64.4141 43.8345 64.3946C43.6573 64.3453 43.4724 64.4485 43.4231 64.6266C43.3738 64.8042 43.4775 64.9883 43.6552 65.038C43.852 65.0924 46.9243 65.9305 50.4696 65.9305C52.4331 65.9301 54.5403 65.6734 56.3848 64.8841Z" fill="#C27B55"/>
<path d="M41.0159 46.0932C39.1842 46.4141 37.7621 46.395 36.4735 46.0065C35.1446 45.6057 33.4186 43.9559 32.8202 42.3961C34.3991 42.2784 37.6436 42.1424 39.1485 42.3307C41.1409 42.5797 43.1749 43.3532 44.3781 44.556C44.3713 44.6809 44.3556 44.8038 44.3411 44.9266C43.3696 45.5841 41.9947 45.9215 41.0159 46.0932Z" fill="url(#paint1_radial)"/>
<path d="M41.6054 43.9767C41.6054 45.3847 40.4634 46.5267 39.0554 46.5267C37.6474 46.5267 36.5054 45.3847 36.5054 43.9767C36.5054 42.5683 37.6474 41.4267 39.0554 41.4267C40.4634 41.4263 41.6054 42.5683 41.6054 43.9767Z" fill="#564F45"/>
<path opacity="0.7" d="M38.7698 41.4548C38.76 41.456 38.7498 41.4573 38.7396 41.4586C38.752 41.516 38.7639 41.5738 38.7758 41.6311C38.7732 41.5729 38.7719 41.5134 38.7698 41.4548ZM38.7753 41.6307C38.8051 42.4688 38.854 43.2155 38.9951 43.4854C39.0694 43.1896 38.9428 42.4527 38.7753 41.6307ZM38.9955 43.4858C38.9772 43.5568 38.9496 43.6053 38.9071 43.6214C38.8646 43.6376 38.811 43.6189 38.7507 43.5776C38.7681 43.6486 38.7664 43.7039 38.7354 43.7383C38.7048 43.7727 38.65 43.7812 38.5769 43.7714C38.6249 43.8267 38.6495 43.8773 38.6389 43.9215C38.6274 43.9657 38.582 43.9988 38.5144 44.0243C38.582 44.0511 38.6274 44.0842 38.6381 44.1284C38.6487 44.1726 38.624 44.2232 38.5764 44.278C38.6487 44.2691 38.7044 44.2785 38.7341 44.3129C38.7643 44.3473 38.766 44.403 38.749 44.474C38.8089 44.4327 38.8616 44.4149 38.9041 44.4315C38.947 44.4476 38.9747 44.4961 38.9917 44.5675C39.0261 44.5029 39.0643 44.4616 39.1107 44.457C39.1549 44.451 39.2025 44.482 39.2505 44.5369C39.2509 44.4638 39.2662 44.4098 39.3045 44.3839C39.3419 44.3579 39.3975 44.363 39.4655 44.3894C39.4324 44.3248 39.4209 44.27 39.4422 44.2292C39.4634 44.1888 39.5157 44.1671 39.5884 44.1586C39.5284 44.1165 39.4919 44.0736 39.4927 44.0277C39.4927 43.9818 39.5284 43.9389 39.5892 43.8977C39.517 43.8887 39.4655 43.8671 39.4439 43.8267C39.423 43.7863 39.4345 43.7311 39.4685 43.6665C39.3997 43.692 39.3444 43.6971 39.307 43.6711C39.2692 43.6452 39.2539 43.5912 39.2539 43.5181C39.2063 43.5725 39.1587 43.6027 39.1136 43.5968C39.0677 43.5908 39.0291 43.5509 38.9955 43.4858ZM39.2535 43.5177C39.457 43.2903 39.6874 42.5789 39.9207 41.7735C39.5578 42.5287 39.2539 43.2126 39.2535 43.5177ZM39.9203 41.7735C39.9458 41.7217 39.9717 41.669 39.9959 41.6163C39.987 41.6133 39.9781 41.609 39.9692 41.6052C39.953 41.6617 39.9369 41.7183 39.9203 41.7735ZM39.4685 43.6665C39.7541 43.5594 40.2892 43.0362 40.8697 42.4318C40.1978 42.9316 39.6105 43.3962 39.4685 43.6665ZM40.8697 42.4318C40.9122 42.4 40.956 42.3681 40.9994 42.3362C40.9934 42.3286 40.9866 42.3222 40.9815 42.3154C40.9445 42.3536 40.9076 42.3932 40.8697 42.4318ZM39.5884 43.8977C39.8914 43.9351 40.6084 43.7204 41.404 43.4552C40.5761 43.5861 39.8408 43.7243 39.5884 43.8977ZM41.404 43.4557C41.4507 43.4489 41.4996 43.4412 41.5472 43.4336C41.5455 43.4255 41.5434 43.4174 41.5412 43.4093C41.4958 43.4246 41.449 43.4404 41.404 43.4557ZM39.5879 44.1582C39.8387 44.3333 40.5731 44.4757 41.3993 44.61C40.6067 44.3409 39.8914 44.1221 39.5879 44.1582ZM41.3997 44.61C41.4401 44.624 41.4809 44.6384 41.5208 44.6516C41.523 44.6444 41.5247 44.6376 41.5259 44.6304C41.4847 44.624 41.4418 44.6172 41.3997 44.61ZM39.4655 44.389C39.6071 44.6597 40.1914 45.1276 40.8604 45.6317C40.2828 45.0239 39.7516 44.4978 39.4655 44.389ZM40.8608 45.6308C40.8859 45.6572 40.9118 45.6844 40.9369 45.7111C40.9411 45.706 40.945 45.7022 40.9496 45.6975C40.9199 45.6754 40.8893 45.6529 40.8608 45.6308ZM39.2509 44.5364C39.2496 44.842 39.5497 45.5271 39.9084 46.2845C39.6793 45.4782 39.4536 44.7651 39.2509 44.5364ZM39.9084 46.2849C39.9173 46.3168 39.9267 46.3495 39.9352 46.3822C39.9415 46.3797 39.9458 46.378 39.9517 46.3763C39.9377 46.3457 39.9228 46.3142 39.9084 46.2849ZM38.9921 44.567C38.8493 44.8378 38.7962 45.5828 38.7617 46.4205C38.9334 45.6002 39.0648 44.8637 38.9921 44.567ZM38.7617 46.4205C38.7545 46.4523 38.7486 46.4846 38.7418 46.5174C38.7477 46.5186 38.7524 46.5186 38.7583 46.5195C38.7592 46.4868 38.7609 46.4528 38.7617 46.4205ZM38.7494 44.4735C38.4961 44.6465 38.103 45.2827 37.6835 46.0078C38.2165 45.3618 38.6755 44.7702 38.7494 44.4735ZM37.6835 46.0078C37.661 46.0346 37.6376 46.063 37.6147 46.0898C37.6202 46.0932 37.6249 46.0958 37.6308 46.1C37.6478 46.0694 37.6661 46.0384 37.6835 46.0078ZM38.5773 44.2785C38.273 44.3137 37.6291 44.6941 36.9206 45.1408C37.6933 44.8169 38.3733 44.5071 38.5773 44.2785ZM36.9202 45.1416C36.8837 45.1569 36.8463 45.1722 36.8084 45.1884C36.811 45.1939 36.8148 45.1999 36.8182 45.2054C36.8526 45.1846 36.8866 45.1629 36.9202 45.1416ZM38.5148 44.0247C38.2296 43.9155 37.4825 43.9533 36.6469 44.0201C37.4816 44.0915 38.2288 44.1327 38.5148 44.0247ZM36.6469 44.0201C36.6015 44.0158 36.5547 44.0116 36.5097 44.0077C36.5097 44.0158 36.5088 44.0239 36.5097 44.0315C36.556 44.0273 36.6023 44.0235 36.6469 44.0201ZM38.5773 43.7723C38.3763 43.5432 37.698 43.2296 36.9279 42.9006C37.6329 43.3511 38.2747 43.7353 38.5773 43.7723ZM36.9279 42.9006C36.8837 42.8721 36.839 42.8437 36.794 42.8152C36.7902 42.8233 36.7859 42.8313 36.7817 42.8386C36.831 42.8594 36.8803 42.8798 36.9279 42.9006ZM38.7511 43.5776C38.6793 43.281 38.2237 42.6877 37.695 42.0379C38.1098 42.7655 38.4995 43.4034 38.7511 43.5776ZM37.695 42.0379C37.6665 41.989 37.6389 41.9393 37.6104 41.8895C37.6023 41.8951 37.5938 41.9006 37.5866 41.9061C37.6223 41.9499 37.6597 41.9941 37.695 42.0379Z" fill="url(#paint2_radial)"/>
<path opacity="0.4" d="M39.432 41.4633C39.4218 41.462 39.412 41.4603 39.4022 41.459C39.3992 41.5177 39.3954 41.5767 39.392 41.635C39.4048 41.578 39.4188 41.5202 39.432 41.4633ZM39.3916 41.6345C39.2037 42.4514 39.0571 43.1854 39.1243 43.4833C39.2726 43.2164 39.3406 42.4718 39.3916 41.6345ZM39.1238 43.4833C39.0881 43.547 39.049 43.5866 39.0036 43.5912C38.9585 43.5955 38.9118 43.564 38.8646 43.5084C38.8629 43.581 38.8467 43.6346 38.8081 43.6597C38.7698 43.6847 38.7141 43.6788 38.6466 43.6507C38.6789 43.7166 38.6895 43.7719 38.6674 43.8114C38.6449 43.8513 38.5926 43.8717 38.5208 43.8785C38.579 43.9215 38.6143 43.9652 38.613 44.0111C38.6121 44.0566 38.5752 44.0991 38.5148 44.1395C38.5866 44.1497 38.6381 44.1731 38.658 44.2134C38.6784 44.2542 38.6657 44.3091 38.6308 44.3728C38.6993 44.3486 38.7549 44.3452 38.7919 44.372C38.8289 44.3987 38.8429 44.4527 38.8412 44.5262C38.8909 44.4731 38.9385 44.4429 38.9844 44.4502C39.0291 44.4561 39.0669 44.4982 39.0992 44.5641C39.1183 44.4931 39.1472 44.4455 39.191 44.4302C39.2339 44.4149 39.2866 44.4344 39.3453 44.4774C39.33 44.4064 39.3329 44.3503 39.364 44.3167C39.395 44.2831 39.4511 44.2759 39.5238 44.2861C39.4766 44.23 39.4524 44.1794 39.4651 44.1352C39.477 44.091 39.5229 44.0587 39.5922 44.0345C39.5242 44.0073 39.4804 43.9729 39.4698 43.9283C39.46 43.8836 39.4855 43.8335 39.5352 43.7799C39.4621 43.7867 39.4073 43.7774 39.378 43.7425C39.3482 43.7077 39.3474 43.6516 39.3661 43.5815C39.3057 43.6214 39.2522 43.6384 39.2101 43.621C39.1663 43.6036 39.14 43.5547 39.1238 43.4833ZM39.3652 43.5815C39.6207 43.414 40.027 42.7863 40.4609 42.0693C39.9148 42.7047 39.4447 43.2861 39.3652 43.5815ZM40.4609 42.0689C40.4987 42.0255 40.5374 41.9813 40.5748 41.9367C40.5667 41.9312 40.5595 41.9248 40.5514 41.9189C40.5212 41.9694 40.4911 42.02 40.4609 42.0689ZM39.5344 43.7804C39.8383 43.7506 40.4906 43.3834 41.2076 42.9503C40.4286 43.2593 39.7414 43.556 39.5344 43.7804ZM41.2072 42.9499C41.2569 42.9304 41.3071 42.9108 41.3576 42.8913C41.3534 42.8823 41.3487 42.8743 41.3457 42.8662C41.2998 42.8942 41.2539 42.9227 41.2072 42.9499ZM39.5905 44.0349C39.8735 44.1497 40.6215 44.1276 41.4584 44.0779C40.6249 43.9895 39.8791 43.9325 39.5905 44.0349ZM41.4584 44.0774C41.506 44.083 41.5544 44.0881 41.6024 44.0932C41.6024 44.0847 41.6029 44.0766 41.6033 44.0685C41.5548 44.0715 41.506 44.0745 41.4584 44.0774ZM39.5229 44.2865C39.7193 44.5207 40.3925 44.848 41.1558 45.1914C40.4592 44.726 39.8251 44.3299 39.5229 44.2865ZM41.1553 45.1914C41.1906 45.2156 41.2263 45.2398 41.2616 45.2628C41.2654 45.2564 41.2688 45.25 41.2722 45.2436C41.234 45.2271 41.194 45.2092 41.1553 45.1914ZM39.3444 44.4778C39.4107 44.7757 39.8544 45.3788 40.3704 46.0392C39.9696 45.3023 39.5926 44.6563 39.3444 44.4778ZM40.3704 46.038C40.3882 46.0698 40.4056 46.103 40.4235 46.1353C40.4286 46.1315 40.4337 46.1285 40.4392 46.1251C40.4163 46.0962 40.3929 46.0664 40.3704 46.038ZM39.0992 44.5645C39.0193 44.859 39.1315 45.5985 39.2819 46.423C39.2688 45.5849 39.2356 44.8378 39.0992 44.5645ZM39.2815 46.423C39.2819 46.4562 39.2828 46.4902 39.2828 46.5242C39.2887 46.5233 39.2943 46.5225 39.3002 46.5225C39.2943 46.4897 39.2879 46.4557 39.2815 46.423ZM38.8412 44.5267C38.633 44.7511 38.389 45.457 38.1391 46.2573C38.5169 45.5097 38.8348 44.8322 38.8412 44.5267ZM38.1387 46.2573C38.1238 46.2862 38.1089 46.3159 38.0945 46.3457C38.0996 46.3482 38.1043 46.3495 38.1098 46.352C38.1191 46.321 38.1293 46.2883 38.1387 46.2573ZM38.6304 44.3737C38.3414 44.4752 37.7966 44.9882 37.2037 45.5798C37.8867 45.0936 38.4825 44.641 38.6304 44.3737ZM37.2041 45.5798C37.1756 45.5998 37.1459 45.6215 37.117 45.6414C37.1212 45.6461 37.1255 45.6499 37.1293 45.655C37.1535 45.63 37.179 45.6053 37.2041 45.5798ZM38.5148 44.1403C38.2118 44.0961 37.4918 44.2967 36.6911 44.5449C37.522 44.4319 38.2585 44.3086 38.5148 44.1403ZM36.6911 44.5458C36.652 44.5513 36.6117 44.556 36.5709 44.5624C36.5721 44.5687 36.5743 44.5751 36.5764 44.5811C36.6151 44.57 36.6533 44.5573 36.6911 44.5458ZM38.5203 43.8798C38.273 43.7 37.5416 43.5432 36.7175 43.3915C37.5054 43.6767 38.216 43.91 38.5203 43.8798ZM36.7175 43.3915C36.6746 43.3758 36.6304 43.3596 36.5879 43.3439C36.5857 43.352 36.5832 43.3596 36.5815 43.3668C36.6278 43.3749 36.6733 43.3834 36.7175 43.3915ZM38.6466 43.6516C38.5114 43.3783 37.9377 42.8998 37.2785 42.3825C37.8429 43.0009 38.3635 43.5381 38.6466 43.6516ZM37.2781 42.383C37.2428 42.3443 37.2071 42.3052 37.1714 42.2661C37.1654 42.2729 37.1591 42.2793 37.1535 42.2856C37.1956 42.3179 37.2377 42.3502 37.2781 42.383ZM38.8646 43.5088C38.8718 43.2036 38.5858 42.5126 38.2424 41.7484C38.4549 42.5585 38.6665 43.2755 38.8646 43.5088ZM38.2424 41.7484C38.2279 41.694 38.2139 41.6384 38.1995 41.5831C38.1905 41.5861 38.1812 41.5895 38.1727 41.5929C38.1956 41.6447 38.2194 41.697 38.2424 41.7484Z" fill="url(#paint3_radial)"/>
<path d="M40.0559 43.9767C40.0559 44.5292 39.6083 44.9767 39.0558 44.9767C38.5038 44.9767 38.0554 44.5292 38.0554 43.9767C38.0554 43.4246 38.5038 42.9763 39.0558 42.9763C39.6083 42.9763 40.0559 43.4242 40.0559 43.9767Z" fill="#564F45"/>
<path opacity="0.9" d="M40.0559 43.9767C40.0559 44.5292 39.6083 44.9767 39.0558 44.9767C38.5038 44.9767 38.0554 44.5292 38.0554 43.9767C38.0554 43.4246 38.5038 42.9763 39.0558 42.9763C39.6083 42.9763 40.0559 43.4242 40.0559 43.9767Z" fill="black"/>
<path opacity="0.5" d="M37.6601 45.1446C37.851 45.0163 38.1102 45.0681 38.2381 45.2585C38.3661 45.4493 38.3155 45.7086 38.1242 45.8365C37.933 45.9653 37.6742 45.9143 37.5462 45.723C37.4183 45.5322 37.4693 45.2725 37.6601 45.1446Z" fill="url(#paint4_linear)"/>
<path opacity="0.5" d="M39.8459 43.8373C39.7392 43.9963 39.4341 43.978 39.1634 43.7965C38.8922 43.615 38.7596 43.3384 38.8659 43.1798V43.1794C38.9721 43.0205 39.2777 43.0387 39.548 43.2206C39.8196 43.4017 39.9522 43.6779 39.8459 43.8373Z" fill="url(#paint5_linear)"/>
<path opacity="0.75" d="M41.0597 43.4127C40.8183 43.7838 40.1944 43.8059 39.6678 43.4625C39.1408 43.1191 38.9096 42.5402 39.1515 42.1692C39.3929 41.7986 40.0168 41.7765 40.5433 42.1195C41.0699 42.4633 41.3011 43.0426 41.0597 43.4127Z" fill="url(#paint6_linear)"/>
<path d="M31.2142 44.2959C31.2142 50.1643 34.6397 54.9205 38.8642 54.9205C43.0887 54.9205 46.5142 50.1643 46.5142 44.2959C46.5142 38.4271 43.0887 33.6705 38.8642 33.6705C34.6397 33.6705 31.2142 38.4271 31.2142 44.2959ZM32.8207 42.3961C34.3995 42.2784 37.644 42.1424 39.1489 42.3307C41.2535 42.5938 43.4159 43.4357 44.5838 44.7574C43.611 45.5309 42.0776 45.9071 41.0159 46.0932C39.1842 46.4141 37.7621 46.395 36.4735 46.0065C35.145 45.6057 33.4191 43.9559 32.8207 42.3961Z" fill="#F0C7B1"/>
<path d="M31.2745 43.8348C31.286 47.3555 34.8802 50.1936 39.3079 50.1753C43.7338 50.1554 47.3132 47.287 47.3034 43.7663C47.2919 40.2452 43.6968 37.4071 39.27 37.4254C34.8432 37.4453 31.2647 40.3136 31.2745 43.8348ZM32.8207 42.3961C34.3995 42.2784 37.644 42.1424 39.1489 42.3307C41.2535 42.5938 43.4159 43.4357 44.5838 44.7574C43.611 45.5309 42.0776 45.9071 41.0159 46.0932C39.1842 46.4141 37.7621 46.395 36.4735 46.0065C35.145 45.6057 33.4191 43.9559 32.8207 42.3961Z" fill="url(#paint7_radial)"/>
<path d="M32.8207 42.3961C34.3995 42.2784 37.644 42.1424 39.1489 42.3307C41.2535 42.5938 43.4159 43.4357 44.5838 44.7574C43.611 45.5309 42.0776 45.9071 41.0159 46.0932C39.1842 46.4141 37.7621 46.395 36.4735 46.0065C35.145 45.6057 33.4191 43.9559 32.8207 42.3961Z" fill="url(#paint8_radial)"/>
<path d="M36.2134 40.9363C40.7197 40.7323 42.0993 41.5644 44.0075 42.7638C40.837 40.9052 36.8369 40.9133 36.2134 40.9363ZM32.8279 43.9355C34.0408 46.2704 34.8666 46.0154 36.0286 46.5101C36.0392 46.514 35.3868 46.2641 34.8964 46.0018C33.6256 45.2713 33.4701 44.9602 32.8279 43.9355Z" fill="#C27B55"/>
<path d="M32.3481 42.156C33.5623 44.7026 34.3715 46.3746 38.4392 46.4362C41.5344 46.4825 43.4516 46.1965 45.0624 45.0022C43.6195 42.7948 41.7669 42.1246 39.2951 41.8751C36.788 41.6218 32.3481 42.156 32.3481 42.156ZM33.2138 42.5219C34.6873 42.4123 37.7145 42.2852 39.1192 42.4607C41.0831 42.706 43.101 43.4918 44.1911 44.7251C43.2829 45.4472 41.8519 45.7978 40.8617 45.9717C39.1527 46.2713 37.825 46.2534 36.6231 45.8909C35.3826 45.5173 33.7722 43.9776 33.2138 42.5219Z" fill="black"/>
<path d="M58.8124 46.0932C60.6441 46.4141 62.0662 46.395 63.3548 46.0065C64.6838 45.6057 66.4097 43.9559 67.0081 42.3961C65.4292 42.2784 62.1848 42.1424 60.6798 42.3307C58.6874 42.5797 56.6534 43.3532 55.4502 44.556C55.457 44.6809 55.4727 44.8038 55.4872 44.9266C56.4587 45.5841 57.834 45.9215 58.8124 46.0932Z" fill="url(#paint9_radial)"/>
<path d="M63.4929 43.9767C63.4929 45.3847 62.3509 46.5267 60.9433 46.5267C59.5353 46.5267 58.3929 45.3847 58.3929 43.9767C58.3929 42.5683 59.5353 41.4267 60.9433 41.4267C62.3509 41.4263 63.4929 42.5683 63.4929 43.9767Z" fill="#564F45"/>
<path opacity="0.7" d="M60.6573 41.4548C60.6475 41.456 60.6373 41.4573 60.6271 41.4586C60.6395 41.516 60.6518 41.5738 60.6633 41.6311C60.6607 41.5729 60.6594 41.5134 60.6573 41.4548ZM60.6628 41.6307C60.6922 42.4688 60.7415 43.2155 60.883 43.4854C60.9569 43.1896 60.8303 42.4527 60.6628 41.6307ZM60.8826 43.4858C60.8647 43.5568 60.8367 43.6053 60.7946 43.6214C60.7517 43.6376 60.6985 43.6189 60.6386 43.5776C60.6556 43.6486 60.6539 43.7039 60.6233 43.7383C60.5927 43.7727 60.5379 43.7812 60.4652 43.7714C60.5128 43.8267 60.5379 43.8773 60.5273 43.9215C60.5154 43.9657 60.4703 43.9988 60.4027 44.0243C60.4699 44.0511 60.5153 44.0842 60.526 44.1284C60.5366 44.1726 60.5124 44.2232 60.4644 44.278C60.5366 44.2691 60.5919 44.2785 60.6216 44.3129C60.6518 44.3473 60.6535 44.403 60.6365 44.474C60.6964 44.4327 60.7495 44.4149 60.7916 44.4315C60.8349 44.4476 60.8621 44.4961 60.8791 44.5675C60.9131 44.5029 60.9522 44.4616 60.9977 44.457C61.0423 44.451 61.09 44.482 61.1376 44.5369C61.1384 44.4638 61.1533 44.4098 61.1919 44.3839C61.2289 44.3579 61.285 44.363 61.353 44.3894C61.3199 44.3248 61.3088 44.27 61.3292 44.2292C61.3509 44.1888 61.4032 44.1671 61.4758 44.1586C61.4159 44.1165 61.3789 44.0736 61.3802 44.0277C61.3798 43.9818 61.4159 43.9389 61.4767 43.8977C61.404 43.8887 61.353 43.8671 61.3314 43.8267C61.3101 43.7863 61.322 43.7311 61.3556 43.6665C61.2872 43.692 61.2319 43.6971 61.1941 43.6711C61.1563 43.6452 61.1414 43.5912 61.141 43.5181C61.0938 43.5725 61.0458 43.6027 61.0007 43.5968C60.9552 43.5908 60.9166 43.5509 60.8826 43.4858ZM61.141 43.5177C61.3445 43.2903 61.5749 42.5789 61.8078 41.7735C61.4453 42.5287 61.1418 43.2126 61.141 43.5177ZM61.8078 41.7735C61.8333 41.7217 61.8592 41.669 61.8839 41.6163C61.8749 41.6133 61.866 41.609 61.8571 41.6052C61.8405 41.6617 61.8244 41.7183 61.8078 41.7735ZM61.356 43.6665C61.642 43.5594 62.1771 43.0362 62.7577 42.4318C62.0853 42.9316 61.4984 43.3962 61.356 43.6665ZM62.7577 42.4318C62.8002 42.4 62.8435 42.3681 62.8873 42.3362C62.8809 42.3286 62.8745 42.3222 62.8694 42.3154C62.832 42.3536 62.7951 42.3932 62.7577 42.4318ZM61.4763 43.8977C61.7793 43.9351 62.4958 43.7204 63.2914 43.4552C62.4635 43.5861 61.7283 43.7243 61.4763 43.8977ZM63.2914 43.4557C63.3382 43.4489 63.3871 43.4412 63.4347 43.4336C63.4326 43.4255 63.4308 43.4174 63.4287 43.4093C63.3832 43.4246 63.3365 43.4404 63.2914 43.4557ZM61.4754 44.1582C61.7266 44.3333 62.4606 44.4757 63.2872 44.61C62.4942 44.3409 61.7789 44.1221 61.4754 44.1582ZM63.2872 44.61C63.3276 44.624 63.3679 44.6384 63.4083 44.6516C63.4104 44.6444 63.4121 44.6376 63.4138 44.6304C63.3722 44.624 63.3289 44.6172 63.2872 44.61ZM61.353 44.389C61.4941 44.6597 62.0789 45.1276 62.7479 45.6317C62.1707 45.0239 61.639 44.4978 61.353 44.389ZM62.7483 45.6308C62.7734 45.6572 62.7989 45.6844 62.8239 45.7111C62.8282 45.706 62.8324 45.7022 62.8371 45.6975C62.8074 45.6754 62.7768 45.6529 62.7483 45.6308ZM61.1388 44.5364C61.1375 44.842 61.4372 45.5271 61.7963 46.2845C61.5668 45.4782 61.3411 44.7651 61.1388 44.5364ZM61.7963 46.2849C61.8052 46.3168 61.8146 46.3495 61.8231 46.3822C61.8294 46.3797 61.8341 46.378 61.8396 46.3763C61.8252 46.3457 61.8103 46.3142 61.7963 46.2849ZM60.8796 44.567C60.7368 44.8378 60.6836 45.5828 60.6492 46.4205C60.8209 45.6002 60.9522 44.8637 60.8796 44.567ZM60.6492 46.4205C60.642 46.4523 60.6361 46.4846 60.6293 46.5174C60.6352 46.5186 60.6395 46.5186 60.6458 46.5195C60.6467 46.4868 60.6484 46.4528 60.6492 46.4205ZM60.6365 44.4735C60.3832 44.6465 59.9901 45.2827 59.5706 46.0078C60.104 45.3618 60.5625 44.7702 60.6365 44.4735ZM59.5706 46.0078C59.5485 46.0346 59.5251 46.063 59.5022 46.0898C59.5077 46.0932 59.5124 46.0958 59.5179 46.1C59.5353 46.0694 59.5536 46.0384 59.5706 46.0078ZM60.4644 44.2785C60.1601 44.3137 59.5166 44.6941 58.8081 45.1408C59.5808 44.8169 60.2608 44.5071 60.4644 44.2785ZM58.8081 45.1416C58.7712 45.1569 58.7338 45.1722 58.6964 45.1884C58.6989 45.1939 58.7023 45.1999 58.7061 45.2054C58.7401 45.1846 58.7741 45.1629 58.8081 45.1416ZM60.4027 44.0247C60.1171 43.9155 59.37 43.9533 58.5344 44.0201C59.3696 44.0915 60.1163 44.1327 60.4027 44.0247ZM58.5344 44.0201C58.4894 44.0158 58.4422 44.0116 58.3976 44.0077C58.3972 44.0158 58.3963 44.0239 58.3972 44.0315C58.4435 44.0273 58.4898 44.0235 58.5344 44.0201ZM60.4652 43.7723C60.2638 43.5432 59.5859 43.2296 58.8154 42.9006C59.5204 43.3511 60.1622 43.7353 60.4652 43.7723ZM58.8154 42.9006C58.7712 42.8721 58.7261 42.8437 58.6815 42.8152C58.6777 42.8233 58.6734 42.8313 58.6696 42.8386C58.7185 42.8594 58.7682 42.8798 58.8154 42.9006ZM60.6386 43.5776C60.5668 43.281 60.1112 42.6877 59.5825 42.0379C59.9973 42.7655 60.387 43.4034 60.6386 43.5776ZM59.5825 42.0379C59.554 41.989 59.526 41.9393 59.4983 41.8895C59.4903 41.8951 59.4818 41.9006 59.4741 41.9061C59.5102 41.9499 59.5472 41.9941 59.5825 42.0379Z" fill="url(#paint10_radial)"/>
<path opacity="0.4" d="M61.3195 41.4633C61.3093 41.462 61.2995 41.4603 61.2897 41.459C61.2863 41.5177 61.2829 41.5767 61.2795 41.635C61.2918 41.578 61.3059 41.5202 61.3195 41.4633ZM61.2791 41.6345C61.0908 42.4514 60.9446 43.1854 61.0113 43.4833C61.1601 43.2164 61.2281 42.4718 61.2791 41.6345ZM61.0113 43.4833C60.9756 43.547 60.9361 43.5866 60.8911 43.5912C60.846 43.5955 60.7993 43.564 60.7521 43.5084C60.7504 43.581 60.7342 43.6346 60.6956 43.6597C60.6573 43.6847 60.6016 43.6788 60.5341 43.6507C60.5659 43.7166 60.577 43.7719 60.5549 43.8114C60.5319 43.8513 60.4801 43.8717 60.4078 43.8785C60.4665 43.9215 60.5013 43.9652 60.5001 44.0111C60.4992 44.0566 60.4622 44.0991 60.4023 44.1395C60.4746 44.1497 60.5251 44.1731 60.5455 44.2134C60.5659 44.2542 60.5532 44.3091 60.5183 44.3728C60.5872 44.3486 60.6429 44.3452 60.6798 44.372C60.7168 44.3987 60.7308 44.4527 60.7287 44.5262C60.7784 44.4731 60.826 44.4429 60.8719 44.4502C60.9166 44.4561 60.9544 44.4982 60.9867 44.5641C61.0062 44.4931 61.0347 44.4455 61.0785 44.4302C61.1214 44.4149 61.1745 44.4344 61.2328 44.4774C61.2179 44.4064 61.2209 44.3503 61.2519 44.3167C61.2825 44.2831 61.3386 44.2759 61.4113 44.2861C61.3645 44.23 61.3399 44.1794 61.3526 44.1352C61.3641 44.091 61.4104 44.0587 61.4797 44.0345C61.4121 44.0073 61.3679 43.9729 61.3573 43.9283C61.3479 43.8836 61.3734 43.8335 61.4227 43.7799C61.3496 43.7867 61.2944 43.7774 61.2655 43.7425C61.2357 43.7077 61.2349 43.6516 61.254 43.5815C61.1932 43.6214 61.1397 43.6384 61.0976 43.621C61.0543 43.6036 61.0271 43.5547 61.0113 43.4833ZM61.2527 43.5815C61.5082 43.414 61.9145 42.7863 62.3484 42.0693C61.8023 42.7047 61.3322 43.2861 61.2527 43.5815ZM62.3484 42.0689C62.3862 42.0255 62.4249 41.9813 62.4627 41.9367C62.4542 41.9312 62.447 41.9248 62.4389 41.9189C62.4087 41.9694 62.3786 42.02 62.3484 42.0689ZM61.4219 43.7804C61.7258 43.7506 62.3777 43.3834 63.0951 42.9503C62.3161 43.2593 61.6289 43.556 61.4219 43.7804ZM63.0947 42.9499C63.144 42.9304 63.1941 42.9108 63.2451 42.8913C63.2409 42.8823 63.2362 42.8743 63.2332 42.8662C63.1873 42.8942 63.1414 42.9227 63.0947 42.9499ZM61.478 44.0349C61.761 44.1497 62.509 44.1276 63.3463 44.0779C62.512 43.9895 61.7666 43.9325 61.478 44.0349ZM63.3459 44.0774C63.393 44.083 63.4419 44.0881 63.4899 44.0932C63.4903 44.0847 63.4903 44.0766 63.4908 44.0685C63.4427 44.0715 63.3935 44.0745 63.3459 44.0774ZM61.4104 44.2865C61.6072 44.5207 62.28 44.848 63.0433 45.1914C62.3467 44.726 61.7126 44.3299 61.4104 44.2865ZM63.0428 45.1914C63.0777 45.2156 63.1138 45.2398 63.1491 45.2628C63.1529 45.2564 63.1567 45.25 63.1593 45.2436C63.1214 45.2271 63.0815 45.2092 63.0428 45.1914ZM61.2323 44.4778C61.2982 44.7757 61.7419 45.3788 62.2578 46.0392C61.8571 45.3023 61.4805 44.6563 61.2323 44.4778ZM62.2583 46.038C62.2757 46.0698 62.2931 46.103 62.311 46.1353C62.3161 46.1315 62.3207 46.1285 62.3267 46.1251C62.3037 46.0962 62.28 46.0664 62.2583 46.038ZM60.9867 44.5645C60.9068 44.859 61.019 45.5985 61.1694 46.423C61.1563 45.5849 61.1231 44.8378 60.9867 44.5645ZM61.169 46.423C61.1694 46.4562 61.1703 46.4902 61.1703 46.5242C61.1767 46.5233 61.1813 46.5225 61.1873 46.5225C61.1818 46.4897 61.1754 46.4557 61.169 46.423ZM60.7283 44.5267C60.5205 44.7511 60.2761 45.457 60.0262 46.2573C60.4044 45.5097 60.7219 44.8322 60.7283 44.5267ZM60.0262 46.2573C60.0113 46.2862 59.9969 46.3159 59.982 46.3457C59.9871 46.3482 59.9913 46.3495 59.9969 46.352C60.0066 46.321 60.0168 46.2883 60.0262 46.2573ZM60.5179 44.3737C60.2289 44.4752 59.6845 44.9882 59.0916 45.5798C59.7742 45.0936 60.37 44.641 60.5179 44.3737ZM59.0916 45.5798C59.0631 45.5998 59.033 45.6215 59.0045 45.6414C59.0087 45.6461 59.013 45.6499 59.0168 45.655C59.041 45.63 59.067 45.6053 59.0916 45.5798ZM60.4023 44.1403C60.0993 44.0961 59.3798 44.2967 58.5791 44.5449C59.4095 44.4319 60.1465 44.3086 60.4023 44.1403ZM58.5791 44.5458C58.5395 44.5513 58.4992 44.556 58.4588 44.5624C58.4605 44.5687 58.4622 44.5751 58.4643 44.5811C58.5026 44.57 58.5408 44.5573 58.5791 44.5458ZM60.4078 43.8798C60.1605 43.7 59.4291 43.5432 58.605 43.3915C59.3929 43.6767 60.1035 43.91 60.4078 43.8798ZM58.605 43.3915C58.5621 43.3758 58.5179 43.3596 58.4754 43.3439C58.4728 43.352 58.4707 43.3596 58.469 43.3668C58.5149 43.3749 58.5608 43.3834 58.605 43.3915ZM60.5341 43.6516C60.3989 43.3783 59.8247 42.8998 59.1656 42.3825C59.7304 43.0009 60.251 43.5381 60.5341 43.6516ZM59.1656 42.383C59.1303 42.3443 59.0946 42.3052 59.0589 42.2661C59.0525 42.2729 59.047 42.2793 59.0406 42.2856C59.0827 42.3179 59.1256 42.3502 59.1656 42.383ZM60.7521 43.5088C60.7593 43.2036 60.4733 42.5126 60.1299 41.7484C60.3428 42.5585 60.554 43.2755 60.7521 43.5088ZM60.1299 41.7484C60.1154 41.694 60.1014 41.6384 60.0865 41.5831C60.0776 41.5861 60.0683 41.5895 60.0598 41.5929C60.0831 41.6447 60.1069 41.697 60.1299 41.7484Z" fill="url(#paint11_radial)"/>
<path d="M61.9434 43.9767C61.9434 44.5292 61.4954 44.9767 60.9433 44.9767C60.3908 44.9767 59.9429 44.5292 59.9429 43.9767C59.9429 43.4246 60.3913 42.9763 60.9433 42.9763C61.4963 42.9763 61.9434 43.4242 61.9434 43.9767Z" fill="#564F45"/>
<path opacity="0.9" d="M61.9434 43.9767C61.9434 44.5292 61.4954 44.9767 60.9433 44.9767C60.3908 44.9767 59.9429 44.5292 59.9429 43.9767C59.9429 43.4246 60.3913 42.9763 60.9433 42.9763C61.4963 42.9763 61.9434 43.4242 61.9434 43.9767Z" fill="black"/>
<path opacity="0.5" d="M59.5481 45.1446C59.7385 45.0163 59.9981 45.0681 60.1256 45.2585C60.254 45.4493 60.2034 45.7086 60.0117 45.8365C59.8205 45.9653 59.5617 45.9143 59.4342 45.723C59.3058 45.5322 59.3568 45.2725 59.5481 45.1446Z" fill="url(#paint12_linear)"/>
<path opacity="0.5" d="M61.733 43.8373C61.6263 43.9963 61.3212 43.978 61.0509 43.7965C60.7797 43.615 60.6471 43.3384 60.7534 43.1798L60.7538 43.1794C60.86 43.0205 61.1656 43.0387 61.4359 43.2206C61.7071 43.4017 61.8397 43.6779 61.733 43.8373Z" fill="url(#paint13_linear)"/>
<path opacity="0.75" d="M62.9476 43.4127C62.7058 43.7838 62.0823 43.8059 61.5553 43.4625C61.0288 43.1191 60.7971 42.5402 61.039 42.1692C61.2804 41.7986 61.9038 41.7765 62.4308 42.1195C62.9574 42.4633 63.1886 43.0426 62.9476 43.4127Z" fill="url(#paint14_linear)"/>
<path d="M60.9646 33.6705C56.7401 33.6705 53.3146 38.4275 53.3146 44.2959C53.3146 50.1643 56.7401 54.9205 60.9646 54.9205C65.1891 54.9205 68.6146 50.1643 68.6146 44.2959C68.6146 38.4271 65.1891 33.6705 60.9646 33.6705ZM63.3548 46.0065C62.0666 46.395 60.6441 46.4141 58.8124 46.0932C57.7512 45.9071 56.2178 45.5309 55.2445 44.7574C56.4124 43.4357 58.5748 42.5938 60.6794 42.3307C62.1843 42.1424 65.4288 42.2784 67.0077 42.3961C66.4093 43.9559 64.6838 45.6057 63.3548 46.0065Z" fill="#F0C7B1"/>
<path d="M60.5587 37.4254C56.1319 37.4071 52.5368 40.2452 52.5254 43.7663C52.5156 47.287 56.0945 50.1554 60.5209 50.1753C64.9485 50.1936 68.5428 47.3555 68.5542 43.8348C68.564 40.3136 64.9855 37.4453 60.5587 37.4254ZM63.3548 46.0065C62.0666 46.395 60.6441 46.4141 58.8124 46.0932C57.7512 45.9071 56.2178 45.5309 55.2445 44.7574C56.4124 43.4357 58.5748 42.5938 60.6794 42.3307C62.1843 42.1424 65.4288 42.2784 67.0077 42.3961C66.4093 43.9559 64.6838 45.6057 63.3548 46.0065Z" fill="url(#paint15_radial)"/>
<path d="M67.0081 42.3961C65.4292 42.2784 62.1848 42.1424 60.6798 42.3307C58.5752 42.5938 56.4128 43.4357 55.2449 44.7574C56.2178 45.5309 57.7512 45.9071 58.8128 46.0932C60.6446 46.4141 62.0666 46.395 63.3552 46.0065C64.6837 45.6057 66.4092 43.9559 67.0081 42.3961Z" fill="url(#paint16_radial)"/>
<path d="M55.8204 42.7638C57.7291 41.5644 59.1082 40.7318 63.6149 40.9363C62.9914 40.9133 58.9913 40.9052 55.8204 42.7638ZM64.9324 46.0023C64.4419 46.2645 63.7896 46.5144 63.8002 46.5106C64.9621 46.0159 65.7883 46.2709 67.0008 43.9359C66.3582 44.9602 66.2031 45.2713 64.9324 46.0023Z" fill="#C27B55"/>
<path d="M60.5336 41.8751C58.0618 42.1246 56.2088 42.7952 54.7664 45.0022C56.3771 46.1961 58.2943 46.4825 61.3896 46.4362C65.4568 46.3746 66.266 44.7026 67.4803 42.156C67.4803 42.156 63.0407 41.6218 60.5336 41.8751ZM63.2056 45.8909C62.0037 46.2534 60.6764 46.2713 58.9671 45.9717C57.9768 45.7978 56.5459 45.4472 55.6376 44.7251C56.7273 43.4918 58.7457 42.706 60.7096 42.4607C62.1142 42.2852 65.1415 42.4123 66.615 42.5219C66.0561 43.9776 64.4458 45.5173 63.2056 45.8909Z" fill="black"/>
<path d="M67.4241 56.6094C67.439 66.2238 59.6501 74.0318 50.0255 74.045C40.4027 74.0607 32.5886 66.279 32.5737 56.6625C32.5589 47.049 40.3478 39.2103 49.972 39.195C59.5952 39.1802 67.4101 46.9938 67.4241 56.6094Z" fill="url(#paint17_radial)"/>
<path d="M65.9366 31.12C65.9366 39.9222 58.8013 47.0575 49.9996 47.0575C41.1974 47.0575 34.0617 39.9222 34.0617 31.12C34.0617 22.3179 41.1974 15.1826 49.9996 15.1826C58.8013 15.1826 65.9366 22.3179 65.9366 31.12Z" fill="url(#paint18_radial)"/>
<path d="M29.8066 39.5652C32.9834 35.5774 38.4502 36.2409 42.9297 36.8818C44.0691 37.045 45.2421 37.1674 46.3595 37.4496C47.1602 37.6514 47.7896 38.5639 47.1461 39.3009C46.8452 39.6515 46.1886 39.5865 45.7832 39.578C40.4192 39.4696 34.3562 36.3849 29.8066 39.5652Z" fill="#543C32"/>
<path d="M70.2194 39.4037C69.2997 38.7883 68.3264 38.354 67.2261 38.1759C63.1899 37.5214 55.5021 40.2117 53.4812 39.6422C52.2436 39.2928 52.4939 38.0531 53.0413 37.7475C53.3707 37.5635 53.4621 37.5682 56.4026 37.0624C61.3994 36.2039 66.9941 35.5214 70.2194 39.4037Z" fill="#543C32"/>
<path d="M49.6099 46.42C49.6099 46.42 49.2329 55.113 49.2847 57.0221C49.2996 57.564 50.3426 58.9843 50.2716 60.02C50.2716 60.02 48.2367 59.8717 47.575 59.6384C46.8826 59.3927 45.8108 58.9142 46.2345 57.5771C46.838 55.6753 49.6099 46.42 49.6099 46.42Z" fill="#E1AC8F"/>
<path d="M49.4203 58.9996C49.4203 58.9996 48.5767 58.7 48.0437 58.7153C47.5584 58.7302 47.4887 58.4067 47.5376 58.2231C47.5869 58.0391 47.753 57.9252 48.2218 58.0502C48.6906 58.1751 49.4203 58.9996 49.4203 58.9996ZM50.6762 59.0005C50.6762 59.0005 51.5177 58.7229 52.0528 58.717C52.5381 58.711 52.6087 58.4084 52.5589 58.2253C52.5096 58.0404 52.343 57.9256 51.8747 58.0506C51.4059 58.1768 50.6762 59.0005 50.6762 59.0005Z" fill="#C27B55"/>
<path d="M72.5169 50.0772C70.5777 44.7923 72.8217 36.6871 69.0298 30.6908C67.3026 27.817 65.8011 25.842 66.0761 22.4985L65.9197 22.4458C65.5533 23.0204 65.0722 23.6443 64.753 24.0438C64.9345 23.5801 65.2303 22.87 65.4981 22.334L65.357 22.2414C64.2583 23.5474 63.3148 24.2172 62.0169 24.5789C63.4194 23.5929 64.9702 21.8772 65.6489 20.926L65.5338 20.8053C60.7232 23.9006 55.2641 23.9427 50.448 23.9805C46.1015 24.0128 43.4019 23.9146 40.2679 22.0931C38.0065 22.8428 36.2258 22.7471 34.2686 21.3982C28.1427 33.2757 30.8644 27.3299 27.2022 49.3479C25.0755 46.5131 24.4575 44.7103 23.9543 42.0094C23.8213 41.1479 23.6913 39.8189 23.772 38.943L23.7452 38.9154C21.8531 34.7632 20.9602 32.3989 21.4099 24.1628C21.7435 20.7458 22.4864 18.1805 24.6288 15.4937C24.3462 14.0338 24.319 12.562 24.5111 11.1544C23.3891 9.10294 22.6169 6.99154 22.316 6.23717C23.8833 7.43694 24.013 7.50622 25.3207 7.91889C25.6199 7.09567 26.0559 6.27797 26.3352 5.85127C26.4614 6.80242 26.5617 7.44501 26.8464 8.36939C26.9433 8.39276 27.4045 8.51771 27.5519 8.55724C27.4674 7.99454 27.39 7.73359 27.4019 7.22911C27.6446 7.78246 27.8494 7.91081 28.5537 8.77016C29.3331 8.93379 29.1461 8.90956 29.3799 8.90956C28.2455 7.13179 27.4801 5.55844 27.2859 3.16569C28.8384 4.05012 31.0106 4.55544 33.2788 4.55544C38.6079 4.55544 44.0606 0.555344 51.6256 0.555344C58.1813 0.555344 63.8533 4.19249 66.3659 8.33411C66.3634 7.26566 66.3179 6.38167 66.7034 5.28347C66.7034 5.28347 66.748 6.85809 66.748 8.08506L66.9163 8.10079C67.1798 6.69787 67.7357 5.50192 68.6537 4.37227C67.8385 6.56441 68.1488 5.39397 67.2367 8.07061L67.3846 8.15009C67.9928 7.36851 68.4909 6.81602 69.9427 6.08374C68.8938 7.13476 68.0918 7.73699 67.5959 8.48031L67.7238 8.59039C68.3426 8.02939 68.9865 7.81689 69.6414 8.32986C68.587 7.94651 67.9643 8.61844 67.241 9.46674C70.0541 9.93041 71.5802 11.5535 73.5582 13.7231C78.1108 18.9727 79.3097 24.0978 76.8405 31.3632C77.8753 33.5999 77.716 38.6413 75.4061 42.7047C75.4052 45.0889 73.7741 48.0308 72.5169 50.0772Z" fill="#543C32"/>
<path d="M33.9762 21.0782C34.1288 21.2201 34.2814 21.3621 34.4327 21.5049C34.3779 21.4687 34.323 21.4352 34.2678 21.3973C28.1418 33.2748 30.8635 27.329 27.2013 49.347C25.0746 46.5123 24.4567 44.7094 23.9535 42.0085C23.8204 41.1471 23.6904 39.8181 23.7711 38.9422L23.7444 38.9145C21.8523 34.7623 20.9594 32.398 21.409 24.1619C21.7426 20.745 22.4855 18.1797 24.6279 15.4928C24.35 14.0572 24.3219 12.6105 24.5034 11.2241C24.7571 11.5956 25.0232 11.9572 25.2952 12.3142C25.4784 13.4294 25.6335 14.517 25.3492 15.3955C21.2951 27.9236 23.6492 33.6705 26.1992 42.5955C25.152 35.8248 23.1638 27.2168 28.5872 22.1955C26.2706 27.7613 26.9102 30.2849 27.4742 34.0955C27.8639 29.0303 29.682 24.3188 33.9762 21.0782ZM73.5577 13.721C73.3979 13.5459 73.2424 13.3759 73.0877 13.208C72.9253 13.3164 72.7587 13.4158 72.5951 13.5212C78.9514 26.5521 72.8476 25.3009 74.3023 31.12C76.0019 35.37 73.7991 37.9205 73.7991 42.1705C73.7991 35.7955 73.5097 31.3589 69.9911 26.3711C68.8028 24.6868 68.4692 18.9663 67.6685 16.1397C57.8077 22.1955 43.2 23.4624 27.8635 11.2233C35.0885 13.7733 49.8143 11.797 54.8692 8.53896C49.1071 9.58488 37.0779 9.64736 31.6685 7.42078C44.631 6.41354 44.4742 2.25279 55.5242 1.47079C50.2117 -0.512686 38.6075 4.55374 33.2788 4.55374C31.011 4.55374 28.8388 4.04884 27.2859 3.16399C27.4801 5.55674 28.2455 7.13051 29.3799 8.90786C29.1457 8.90786 29.3331 8.93208 28.5537 8.76846C27.849 7.90911 27.6442 7.78033 27.4019 7.22741C27.3896 7.73188 27.4674 7.99283 27.5519 8.55553C27.4045 8.51601 26.9429 8.39106 26.8464 8.36768C26.5617 7.44331 26.4614 6.80071 26.3352 5.84956C26.0564 6.27626 25.6199 7.09396 25.3207 7.91718C24.0125 7.50451 23.8833 7.43523 22.3159 6.23546C22.6168 6.98983 23.3891 9.10166 24.5111 11.1527C24.5081 11.1761 24.5072 11.1999 24.5043 11.2233C27.1839 15.1481 30.9511 18.2234 34.4335 21.5049C36.3265 22.7476 38.0707 22.8207 40.2684 22.0922C43.4023 23.9138 46.1023 24.0119 50.4484 23.9796C55.2645 23.9422 60.7236 23.8997 65.5342 20.8045L65.6494 20.9252C64.9706 21.8763 63.4198 23.592 62.0173 24.578C63.3157 24.2159 64.2587 23.5461 65.3574 22.2405L65.4985 22.3332C65.2307 22.8695 64.9349 23.5793 64.7535 24.043C65.0726 23.6435 65.5537 23.0196 65.9201 22.445L66.0765 22.4977C65.8019 25.8415 67.303 27.8161 69.0302 30.6899C72.8221 36.6863 70.5785 44.7919 72.5173 50.0763C73.7745 48.0299 75.4056 45.0885 75.4056 42.7017C77.7155 38.6383 77.8749 33.5969 76.84 31.3602C79.3093 24.0957 78.1103 18.9706 73.5577 13.721ZM73.8693 24.6218C73.729 20.5741 71.0502 15.4367 71.0502 15.4367C69.7982 13.225 68.6792 12.1697 66.8019 11.7413C72.083 12.0044 74.157 19.8924 73.9288 24.0132C73.9071 24.3957 73.8693 24.6218 73.8693 24.6218ZM61.8596 7.53001C63.2549 8.66178 63.5881 8.98478 64.9604 10.8913C57.8829 -1.81149 43.9939 7.80158 39.602 7.49133C44.0666 8.41401 54.1612 1.88474 61.8596 7.53001ZM65.456 13.0516C56.9726 20.0845 44.019 17.1053 33.4242 13.7847C43.9756 18.6174 57.409 21.2324 65.456 13.0516ZM32.0935 20.7016C29.3144 22.1572 28.0067 25.8228 27.886 28.2453C28.4049 26.1548 29.9621 22.3192 32.0935 20.7016ZM28.5872 18.6829C24.6097 21.1049 23.8383 26.6605 24.231 31.3266C24.6492 27.0162 25.4261 21.3922 28.5872 18.6829ZM57.2514 13.415C56.8238 13.5064 54.1663 13.8706 52.7158 13.9229C51.5848 13.9887 47.175 14.0623 43.1996 13.9025C47.303 14.7818 49.7675 14.9454 52.7604 14.7716C56.2054 14.6471 59.2884 13.9649 61.8431 11.8833C60.0432 12.874 59.2761 13.0151 57.2514 13.415ZM71.508 24.6966C71.508 24.6966 71.3992 24.5092 71.2581 24.2283C70.8709 23.5793 70.4314 21.8138 68.7344 16.2655C69.995 26.5483 72.0566 24.6728 72.9806 29.9857C72.981 28.0749 72.8476 27.0953 71.508 24.6966Z" fill="#452C22"/>
<path d="M74.5867 37.1261C74.7414 35.7466 74.6789 36.379 74.6959 35.5919C74.8259 32.9382 73.2398 30.7133 74.2054 27.5224C74.9934 25.2049 75.4486 24.8415 75.1035 20.807C75.0529 20.2248 74.902 18.7781 74.6351 18.2579C74.9989 18.8907 75.2395 20.062 75.3682 20.7798C76.0852 24.8356 75.4821 25.4514 74.7218 27.6933C73.7061 31.0805 75.6555 32.5748 74.5867 37.1261ZM67.6685 16.1397C68.1432 29.0469 70.7608 26.049 73.0732 33.8842C71.5033 24.6422 70.0511 32.3045 67.6685 16.1397ZM28.056 22.7204C24.1502 27.6346 24.5446 31.1774 25.506 38.4453C25.4193 31.0886 24.5225 28.2964 28.056 22.7204ZM25.2523 15.6989C23.0108 22.6345 22.52 25.7646 23.596 33.2451C23.3967 25.7455 23.4443 24.0901 25.2523 15.6989ZM33.8288 21.1929C29.736 24.1335 27.5995 29.5127 27.4742 34.0955C28.104 29.7159 30.4543 24.1917 33.8288 21.1929ZM62.2625 18.6229C57.1409 20.5087 48.8041 21.0136 42.7176 19.1848C37.9742 17.8014 30.5677 13.1528 26.5838 10.2296C30.1954 13.1047 36.559 17.3726 41.0023 19.0594C45.6191 20.7845 52.8543 21.4254 58.4618 20.0135C62.3922 19.0258 64.4292 18.0925 67.6685 16.1401C66.2265 16.9306 64.1023 18.0483 62.2625 18.6229ZM51.1947 3.24304C56.3657 2.27192 62.461 5.60519 65.6689 9.54579C62.3127 4.73564 56.8132 2.34247 53.5301 2.28552C48.1415 2.19202 42.5672 6.80879 31.6685 7.20787C41.9165 7.65922 46.8427 3.94769 51.1947 3.24304ZM55.256 8.69537C47.9082 11.3061 42.234 11.9309 34.513 12.3419C42.4873 12.8327 48.1882 12.0592 55.256 8.69537ZM62.9769 10.1841C58.4456 12.3206 56.4617 12.6708 47.1087 13.2403C52.9725 13.477 58.4503 13.1723 62.9769 10.1841ZM47.9796 16.6803C52.5033 17.206 60.4274 16.6356 64.3935 12.5204C59.6037 16.5553 50.7429 16.4108 43.832 16.1363C46.4772 16.5489 45.9999 16.4801 47.9796 16.6803ZM67.3685 12.7329C70.6108 13.9267 71.4013 19.6149 72.681 24.2079C72.1085 20.1368 71.1306 13.616 67.3685 12.7329Z" fill="#634E45"/>
<path d="M73.6202 13.6636C71.7723 11.6368 70.1131 9.85136 67.4025 9.40511C68.2924 8.35834 68.918 7.96904 70.0587 8.61886C69.383 7.82369 68.6065 7.67281 67.666 8.52536C68.2062 7.71574 69.1399 7.05486 70.3435 5.79261C68.5453 6.63624 68.0047 7.21211 67.3175 8.09611C68.2886 5.24734 67.87 6.76671 68.8985 3.95236C67.8236 5.15766 67.1364 6.46836 66.8334 8.08336C66.8334 5.57459 66.7548 5.89886 66.8036 4.80236C66.2142 6.11519 66.2813 7.27161 66.2813 8.02811C65.3323 6.46326 63.9379 5.13811 62.4347 4.05436C51.7867 -3.71846 41.1681 3.43556 35.4132 4.30086C33.0803 4.69484 29.5847 4.44451 27.1894 3.00886C27.3586 5.45856 28.1172 7.08546 29.2252 8.82286C29.2247 8.82286 28.6004 8.69111 28.6004 8.69111C27.7423 7.65666 27.6595 7.68981 27.3424 6.85086C27.2612 7.60014 27.3853 8.01536 27.4487 8.44036C27.237 8.38511 27.0419 8.32646 26.9132 8.29586C26.5974 7.26991 26.506 6.48961 26.3904 5.62261C26.1295 5.95624 25.5736 6.97411 25.2684 7.81136C23.9939 7.40846 23.9025 7.34429 22.1107 5.97111C22.3232 6.39611 23.092 8.71703 24.4227 11.1689C24.2229 12.6708 24.2833 14.1694 24.5374 15.4699C22.4018 18.1525 21.6602 20.7169 21.3244 24.1569C20.882 32.2569 21.6929 34.6165 23.6747 38.9553C23.6789 38.9596 23.6789 38.9681 23.6832 38.9723C23.608 39.81 23.7338 41.1407 23.8702 42.0238C24.3713 44.7149 24.9858 46.5684 27.2319 49.5251C27.2404 49.5336 27.2447 49.5463 27.2532 49.5548C28.696 40.8984 28.5473 40.6864 28.8554 38.5516C30.3735 27.624 30.3076 29.256 34.2997 21.5219C35.9202 22.6388 37.7145 23.0315 40.2582 22.1849C42.1035 23.2576 43.988 24.0761 49.2087 24.0761C54.3813 24.0115 60.3335 24.2512 65.5797 20.8759C64.7849 21.9902 62.9795 23.9163 61.5592 24.7774C63.0377 24.4646 64.0985 23.8691 65.4224 22.2954C65.0157 23.1092 64.5371 24.3413 64.5002 24.4884C64.5639 24.4119 65.4139 23.3961 65.9919 22.4909C65.7144 25.8675 67.2219 27.8446 68.9584 30.7358C72.7647 36.7551 70.4506 44.9823 72.4986 50.2688C73.8119 48.1455 75.4906 45.1323 75.4906 42.7251C77.7049 38.8635 78.0219 33.7529 76.9314 31.3563C79.1486 24.7132 78.7007 19.5214 73.6202 13.6636ZM27.3845 7.12286C27.5919 7.71319 27.6374 7.70044 28.4427 8.65711C28.0432 8.57424 27.7776 8.51601 27.5375 8.46161C27.4444 8.01281 27.3845 7.58611 27.3845 7.12286ZM26.3177 5.99236C26.3577 6.64346 26.5128 7.49771 26.7385 8.24911C25.5209 7.93589 25.9735 8.03491 25.5485 7.90911C25.8983 6.85766 26.03 6.59161 26.3177 5.99236ZM27.0487 48.5858C25.257 45.3537 24.7865 44.2547 24.2905 40.9826C24.242 40.606 24.0899 39.518 24.0823 38.9978C21.5025 33.0988 20.5327 21.8976 24.5965 15.7334C24.5965 15.7291 24.5965 15.7291 24.5965 15.7291C24.5965 15.7291 24.7661 15.4639 25.0725 15.0831C24.959 14.5119 24.8468 13.3066 24.8855 11.9891C25.2 12.5501 25.557 13.0601 25.8757 13.5489C25.8757 13.5476 26.1265 13.8808 26.1265 13.8889C28.0607 16.3496 29.8469 18.3956 34.1675 21.4326C28.9804 29.8365 29.3021 26.998 27.0487 48.5858ZM77.0457 28.658C76.8944 29.6602 76.5685 31.0308 76.3917 31.6288C77.5732 34.6327 76.2824 40.306 75.0907 42.8403C74.5697 45.8548 74.0091 46.4617 72.5365 49.466C71.4838 44.791 73.6342 36.4954 69.6635 30.307C67.0884 26.0383 65.9843 25.479 66.5907 20.2048C66.5907 20.2048 66.6167 19.9179 66.6247 19.8435C61.2578 23.125 55.3299 23.496 47.5125 23.3285C45.2528 23.3285 42.2 23.0446 40.296 21.8665C36.4366 22.9643 35.0047 21.2558 31.7917 18.747C28.3225 15.7988 25.9654 13.2246 23.058 7.15729C24.6913 8.48243 27.9612 9.15011 30.0237 9.49478C28.6327 7.64051 27.8142 5.94646 27.444 3.54479C28.923 4.53079 32.4675 5.50106 35.5912 5.15554C41.3432 4.61536 49.3969 -1.29043 59.2935 3.18779C63.8852 5.21376 66.215 8.06509 66.7607 9.56278C66.765 9.56278 66.7692 9.56703 66.7777 9.56703C66.8032 9.57553 66.8287 9.57978 66.8581 9.58403C66.8653 9.59168 66.9992 9.62228 67.0111 9.62228C69.9759 10.6104 70.1743 10.7949 73.046 14.1443C74.6602 16.1244 78.5456 20.0773 77.0457 28.658Z" fill="#26130B"/>
</g>
<defs>
<linearGradient id="paint0_linear" x1="49.9992" y1="80.8454" x2="49.9992" y2="62.5705" gradientUnits="userSpaceOnUse">
<stop stop-color="#E1AC8F" stop-opacity="0.8"/>
<stop offset="0.7" stop-color="#C27B55"/>
</linearGradient>
<radialGradient id="paint1_radial" cx="0" cy="0" r="1" gradientUnits="userSpaceOnUse" gradientTransform="translate(38.4396 44.2253) rotate(180) scale(5.95)">
<stop stop-color="white"/>
<stop offset="0.544" stop-color="#FDFEFE"/>
<stop offset="0.74" stop-color="#F6F8F9"/>
<stop offset="0.879" stop-color="#EAEFF2"/>
<stop offset="0.992" stop-color="#D9E3E8"/>
<stop offset="1" stop-color="#D8E2E7"/>
</radialGradient>
<radialGradient id="paint2_radial" cx="0" cy="0" r="1" gradientUnits="userSpaceOnUse" gradientTransform="translate(39.0234 43.9852) rotate(-14.4847) scale(2.51787 2.51842)">
<stop stop-color="white"/>
<stop offset="1" stop-color="white" stop-opacity="0"/>
</radialGradient>
<radialGradient id="paint3_radial" cx="0" cy="0" r="1" gradientUnits="userSpaceOnUse" gradientTransform="translate(39.0236 43.988) rotate(0.512025) scale(2.51641)">
<stop stop-color="white"/>
<stop offset="1" stop-color="white" stop-opacity="0"/>
</radialGradient>
<linearGradient id="paint4_linear" x1="37.6402" y1="45.7906" x2="38.038" y2="45.3163" gradientUnits="userSpaceOnUse">
<stop stop-color="white"/>
<stop offset="1" stop-color="white" stop-opacity="0"/>
</linearGradient>
<linearGradient id="paint5_linear" x1="39.5705" y1="43.2525" x2="39.2522" y2="43.632" gradientUnits="userSpaceOnUse">
<stop stop-color="white"/>
<stop offset="1" stop-color="white" stop-opacity="0"/>
</linearGradient>
<linearGradient id="paint6_linear" x1="40.6007" y1="42.2011" x2="39.8672" y2="43.0753" gradientUnits="userSpaceOnUse">
<stop stop-color="white"/>
<stop offset="1" stop-color="white" stop-opacity="0"/>
</linearGradient>
<radialGradient id="paint7_radial" cx="0" cy="0" r="1" gradientUnits="userSpaceOnUse" gradientTransform="translate(39.2227 43.8467) rotate(1.19182) scale(7.94975 4.99424)">
<stop stop-color="#E1AC8F"/>
<stop offset="0.7" stop-color="#E1AC8F" stop-opacity="0.3"/>
<stop offset="1" stop-color="#F0C7B1" stop-opacity="0"/>
</radialGradient>
<radialGradient id="paint8_radial" cx="0" cy="0" r="1" gradientUnits="userSpaceOnUse" gradientTransform="translate(37.1409 55.7843) rotate(-3.00026) scale(12.9612)">
<stop offset="0.95" stop-opacity="0"/>
<stop offset="1" stop-opacity="0.2"/>
</radialGradient>
<radialGradient id="paint9_radial" cx="0" cy="0" r="1" gradientUnits="userSpaceOnUse" gradientTransform="translate(61.3896 44.2253) scale(5.95)">
<stop stop-color="white"/>
<stop offset="0.544" stop-color="#FDFEFE"/>
<stop offset="0.74" stop-color="#F6F8F9"/>
<stop offset="0.879" stop-color="#EAEFF2"/>
<stop offset="0.992" stop-color="#D9E3E8"/>
<stop offset="1" stop-color="#D8E2E7"/>
</radialGradient>
<radialGradient id="paint10_radial" cx="0" cy="0" r="1" gradientUnits="userSpaceOnUse" gradientTransform="translate(60.9106 43.9852) rotate(-14.4847) scale(2.51791 2.51847)">
<stop stop-color="white"/>
<stop offset="1" stop-color="white" stop-opacity="0"/>
</radialGradient>
<radialGradient id="paint11_radial" cx="0" cy="0" r="1" gradientUnits="userSpaceOnUse" gradientTransform="translate(60.911 43.9879) rotate(0.512025) scale(2.51649)">
<stop stop-color="white"/>
<stop offset="1" stop-color="white" stop-opacity="0"/>
</radialGradient>
<linearGradient id="paint12_linear" x1="59.5277" y1="45.7906" x2="59.9255" y2="45.3163" gradientUnits="userSpaceOnUse">
<stop stop-color="white"/>
<stop offset="1" stop-color="white" stop-opacity="0"/>
</linearGradient>
<linearGradient id="paint13_linear" x1="61.458" y1="43.2525" x2="61.1397" y2="43.632" gradientUnits="userSpaceOnUse">
<stop stop-color="white"/>
<stop offset="1" stop-color="white" stop-opacity="0"/>
</linearGradient>
<linearGradient id="paint14_linear" x1="62.4882" y1="42.2011" x2="61.7547" y2="43.0753" gradientUnits="userSpaceOnUse">
<stop stop-color="white"/>
<stop offset="1" stop-color="white" stop-opacity="0"/>
</linearGradient>
<radialGradient id="paint15_radial" cx="0" cy="0" r="1" gradientUnits="userSpaceOnUse" gradientTransform="translate(60.6057 43.8467) rotate(178.808) scale(7.94975 4.99424)">
<stop stop-color="#E1AC8F"/>
<stop offset="0.7" stop-color="#E1AC8F" stop-opacity="0.3"/>
<stop offset="1" stop-color="#F0C7B1" stop-opacity="0"/>
</radialGradient>
<radialGradient id="paint16_radial" cx="0" cy="0" r="1" gradientUnits="userSpaceOnUse" gradientTransform="translate(62.6876 55.7848) rotate(-177) scale(12.9616)">
<stop offset="0.95" stop-opacity="0"/>
<stop offset="1" stop-opacity="0.2"/>
</radialGradient>
<radialGradient id="paint17_radial" cx="0" cy="0" r="1" gradientUnits="userSpaceOnUse" gradientTransform="translate(49.9992 56.6205) scale(17.425)">
<stop stop-color="#FFE4D6" stop-opacity="0.5"/>
<stop offset="0.9" stop-color="#F0C7B1" stop-opacity="0"/>
</radialGradient>
<radialGradient id="paint18_radial" cx="0" cy="0" r="1" gradientUnits="userSpaceOnUse" gradientTransform="translate(49.9992 31.1205) scale(15.725)">
<stop stop-color="#FFE4D6" stop-opacity="0.5"/>
<stop offset="0.9" stop-color="#F0C7B1" stop-opacity="0"/>
</radialGradient>
<clipPath id="clip0">
<rect width="100" height="100" fill="white"/>
</clipPath>
</defs>
</svg>
