<?xml version="1.0" standalone="no"?>
<!DOCTYPE svg PUBLIC "-//W3C//DTD SVG 20010904//EN"
 "http://www.w3.org/TR/2001/REC-SVG-20010904/DTD/svg10.dtd">
<svg version="1.0" xmlns="http://www.w3.org/2000/svg"
 width="150" height="150" viewBox="0 0 512.000000 512.000000"
 preserveAspectRatio="xMidYMid meet">

<g transform="translate(0.000000,512.000000) scale(0.100000,-0.100000)"
fill="#000000" stroke="none">
<path d="M2364 4535 c-670 -98 -1238 -504 -1543 -1105 -98 -193 -157 -373
-198 -605 -24 -140 -24 -500 0 -640 113 -650 499 -1188 1068 -1489 421 -223
918 -291 1389 -190 666 143 1224 618 1473 1254 92 235 127 415 134 691 7 281
-18 464 -98 703 -97 289 -248 539 -459 760 -327 342 -722 548 -1185 617 -154
22 -438 24 -581 4z m1121 -916 c154 -47 300 -191 351 -345 27 -83 27 -265 -1
-349 -37 -113 -96 -183 -462 -545 -370 -368 -393 -386 -528 -426 -84 -24 -220
-22 -305 5 -166 53 -292 170 -352 326 l-21 56 53 54 54 54 18 -71 c68 -268
358 -394 613 -266 55 28 731 702 773 771 113 187 61 434 -118 560 -133 93
-319 102 -455 21 -22 -13 -87 -71 -145 -129 l-105 -105 -90 0 -90 0 165 163
c136 134 177 168 234 196 126 62 274 73 411 30z m-714 -572 c93 -33 146 -67
212 -133 56 -56 137 -194 137 -232 0 -16 -87 -112 -101 -112 -3 0 -9 20 -12
45 -16 115 -116 242 -234 298 -64 30 -75 32 -178 32 -104 0 -114 -2 -180 -33
-64 -30 -98 -61 -427 -390 -325 -325 -360 -363 -388 -424 -59 -125 -58 -254 2
-375 84 -171 292 -268 473 -219 92 24 153 64 264 171 l108 105 84 0 84 0 -160
-159 c-167 -166 -216 -200 -334 -235 -69 -20 -208 -21 -286 -1 -339 89 -502
470 -338 789 33 63 77 112 397 432 361 361 399 394 509 436 115 44 255 46 368
5z"/>
</g>
</svg>
