<?xml version="1.0" standalone="no"?>
<!DOCTYPE svg PUBLIC "-//W3C//DTD SVG 20010904//EN"
 "http://www.w3.org/TR/2001/REC-SVG-20010904/DTD/svg10.dtd">
<svg version="1.0" xmlns="http://www.w3.org/2000/svg"
 width="55" height="55" viewBox="0 0 210.000000 240.000000"
 preserveAspectRatio="xMidYMid meet">

<g transform="translate(0.000000,240.000000) scale(0.100000,-0.100000)"
fill="#0071b5" stroke="none">
<path d="M7 2343 c3 -27 42 -506 87 -1065 45 -560 84 -1019 87 -1022 6 -7 859
-246 876 -246 11 0 843 239 850 244 1 0 42 467 92 1036 50 569 93 1050 95
1068 l5 32 -1048 0 -1048 0 4 -47z m1703 -531 l0 -129 -291 -119 -291 -119
263 -5 264 -5 -2 -40 c-3 -53 -65 -770 -67 -771 0 -1 -119 -38 -263 -84 l-263
-83 -271 74 c-149 41 -274 76 -279 79 -8 5 -40 314 -40 384 l0 36 129 0 129 0
6 -42 c3 -24 8 -70 12 -104 l6 -60 152 -30 152 -30 134 24 c74 14 137 26 139
28 2 2 10 61 17 131 7 70 16 147 18 171 l6 42 -458 0 -458 0 -17 123 c-8 67
-13 125 -9 129 4 4 142 65 307 137 l300 131 -312 0 -311 0 -6 28 c-3 15 -10
63 -16 107 -6 44 -13 90 -16 103 l-4 22 670 0 670 0 0 -128z"/>
</g>
</svg>
