<?xml version="1.0" standalone="no"?>
<!DOCTYPE svg PUBLIC "-//W3C//DTD SVG 20010904//EN"
 "http://www.w3.org/TR/2001/REC-SVG-20010904/DTD/svg10.dtd">
<svg version="1.0" xmlns="http://www.w3.org/2000/svg"
 width="55" height="55" viewBox="0 0 512.000000 512.000000"
 preserveAspectRatio="xMidYMid meet">

<g transform="translate(0.000000,512.000000) scale(0.100000,-0.100000)"
fill="#e34f26" stroke="none">
<path d="M307 5088 c13 -124 403 -4530 403 -4545 0 -17 106 -49 909 -276 499
-141 918 -257 931 -257 12 0 434 116 936 257 809 227 914 259 914 276 0 15
390 4421 403 4545 l3 32 -2251 0 -2251 0 3 -32z m3663 -965 c0 -32 -9 -139
-20 -238 -11 -99 -20 -199 -20 -222 l0 -43 -1084 0 -1085 0 5 -32 c6 -44 44
-498 44 -526 l0 -22 1031 0 1031 0 -5 -42 c-2 -24 -37 -414 -77 -868 -40 -454
-75 -828 -79 -831 -8 -9 -1136 -319 -1157 -319 -26 0 -1148 311 -1159 321 -8
8 -73 745 -74 852 l-1 37 280 0 280 0 4 -22 c3 -13 13 -113 22 -223 9 -110 17
-201 18 -201 0 -1 143 -40 316 -87 182 -49 321 -82 330 -78 8 4 148 43 311 86
l295 79 32 346 c18 190 32 353 32 363 0 16 -53 17 -975 17 l-975 0 -4 23 c-7
32 -146 1605 -146 1650 l0 37 1415 0 1415 0 0 -57z"/>
</g>
</svg>
