<?xml version="1.0" standalone="no"?>
<svg version="1.0" xmlns="http://www.w3.org/2000/svg"
 width="55" height="55" viewBox="0 0 570.000000 570.000000"
 preserveAspectRatio="xMidYMid meet">

<g transform="translate(0.000000,570.000000) scale(0.100000,-0.100000)"
fill="#af1520" stroke="none">
<path d="M241 5680 c-66 -24 -84 -35 -143 -94 -29 -29 -56 -69 -70 -104 l-23
-57 -3 -1464 -2 -1463 52 43 c149 123 587 580 692 723 l29 38 33 -116 c18 -64
52 -164 75 -223 23 -60 48 -126 57 -148 l15 -40 -75 -150 c-171 -339 -286
-686 -329 -983 -16 -113 -7 -341 16 -405 51 -141 214 -195 373 -122 187 86
412 279 593 510 293 372 571 999 719 1623 13 51 26 90 30 85 4 -4 18 -48 30
-98 13 -49 45 -139 72 -199 77 -173 77 -165 17 -399 -28 -111 -69 -267 -91
-347 -81 -290 -112 -487 -106 -665 5 -133 22 -197 80 -292 135 -223 369 -281
698 -176 220 70 507 238 729 425 l32 28 -50 155 c-233 718 -281 1456 -141
2142 137 665 448 1303 848 1734 l54 59 -2078 0 c-2031 -1 -2080 -1 -2133 -20z"/>
<path d="M5296 5675 c-72 -20 -162 -67 -262 -137 -106 -75 -397 -361 -505
-498 -496 -623 -803 -1376 -870 -2130 -22 -253 -1 -584 52 -795 39 -155 130
-385 153 -385 6 0 85 75 176 168 229 232 529 609 757 952 526 791 828 1484
894 2050 16 146 7 381 -20 484 -66 249 -186 343 -375 291z"/>
<path d="M5657 3792 c-137 -489 -430 -1101 -770 -1612 -98 -146 -299 -418
-381 -515 -119 -140 -194 -225 -264 -296 l-74 -77 43 -25 c78 -46 178 -87 277
-115 91 -25 109 -27 302 -27 176 0 219 4 305 23 169 38 383 117 553 205 l52
27 0 1275 c0 701 -1 1275 -2 1275 -2 0 -20 -62 -41 -138z"/>
<path d="M507 2478 c-12 -34 -317 -401 -447 -540 l-59 -63 -1 -783 c0 -874 -2
-847 69 -941 46 -63 99 -105 159 -128 45 -17 162 -18 2627 -18 l2580 0 57 28
c75 37 138 99 174 172 l29 60 3 243 3 242 -53 -21 c-185 -74 -379 -121 -573
-139 -221 -21 -454 19 -642 110 -117 56 -189 106 -287 199 -52 51 -144 157
-172 199 -1 2 -62 -45 -135 -104 -361 -292 -666 -426 -929 -411 -269 15 -474
179 -625 500 -69 147 -122 313 -180 561 -6 28 -10 23 -65 -81 -175 -332 -542
-774 -770 -927 -205 -138 -377 -136 -505 6 -58 65 -102 143 -166 298 -117 286
-192 549 -205 720 -9 123 29 389 102 714 13 60 22 111 20 113 -2 2 -6 -2 -9
-9z"/>
</g>
</svg>
