<?xml version="1.0" standalone="no"?>
<!DOCTYPE svg PUBLIC "-//W3C//DTD SVG 20010904//EN"
 "http://www.w3.org/TR/2001/REC-SVG-20010904/DTD/svg10.dtd">
<svg version="1.0" xmlns="http://www.w3.org/2000/svg"
 width="55" height="55" viewBox="0 0 512.000000 512.000000"
 preserveAspectRatio="xMidYMid meet">

<g transform="translate(0.000000,512.000000) scale(0.100000,-0.100000)"
fill="#010101" stroke="none">
<path d="M2378 5110 c-1029 -74 -1923 -770 -2243 -1745 -145 -441 -169 -915
-69 -1365 194 -870 838 -1582 1687 -1864 437 -146 915 -170 1367 -70 694 154
1302 604 1659 1226 313 547 413 1207 275 1828 -193 869 -844 1587 -1689 1865
-314 103 -666 148 -987 125z m-653 -1399 c55 -24 112 -75 138 -125 30 -56 32
-203 3 -256 -52 -99 -145 -150 -273 -151 -91 -1 -157 20 -212 67 -58 50 -83
104 -89 192 -12 188 125 312 328 296 35 -3 83 -13 105 -23z m1647 -720 c215
-55 359 -200 429 -431 23 -73 23 -87 27 -622 l3 -548 -285 0 -285 0 -3 478
c-3 476 -3 477 -27 537 -33 83 -90 138 -165 160 -135 39 -258 -16 -328 -148
-23 -42 -23 -45 -26 -529 l-3 -488 -280 0 -279 0 2 795 3 795 278 0 277 0 0
-112 0 -111 29 40 c118 163 397 244 633 184z m-1512 -806 l0 -795 -250 0 -250
0 0 795 0 795 250 0 250 0 0 -795z"/>
</g>
</svg>
