<?xml version="1.0" standalone="no"?>
<!DOCTYPE svg PUBLIC "-//W3C//DTD SVG 20010904//EN"
 "http://www.w3.org/TR/2001/REC-SVG-20010904/DTD/svg10.dtd">
<svg version="1.0" xmlns="http://www.w3.org/2000/svg"
 width="55" height="55" viewBox="0 0 512.000000 512.000000"
 preserveAspectRatio="xMidYMid meet">

<g transform="translate(0.000000,512.000000) scale(0.100000,-0.100000)"
fill="#018bf7" stroke="none">
<path d="M0 2560 l0 -2560 2560 0 2560 0 0 2560 0 2560 -2560 0 -2560 0 0
-2560z m3141 1197 c225 -39 491 -160 637 -290 52 -47 150 -148 175 -180 12
-16 32 -42 45 -57 32 -40 126 -241 155 -330 96 -298 74 -616 -61 -885 -71
-142 -222 -325 -352 -427 -139 -108 -357 -222 -527 -273 -232 -71 -281 -75
-863 -75 -570 0 -619 4 -726 58 -121 61 -195 155 -230 292 -17 68 -14 120 13
205 21 65 66 154 92 182 36 38 29 110 -19 189 -22 36 -40 68 -40 70 0 2 -29
52 -65 109 -36 58 -65 108 -65 110 0 3 -45 80 -100 171 -55 91 -100 168 -100
170 0 2 -16 28 -35 58 -19 30 -35 57 -35 59 0 3 -17 34 -39 69 -111 183 -139
276 -116 395 31 163 129 294 267 357 40 19 87 36 103 39 17 3 426 4 910 2 763
-1 893 -4 976 -18z"/>
<path d="M1356 3505 c-87 -31 -123 -103 -113 -225 3 -40 15 -86 27 -110 18
-35 171 -277 402 -633 l51 -78 37 63 c68 117 131 223 173 293 57 95 158 195
238 234 132 64 195 73 511 69 279 -3 284 -4 363 -31 204 -71 343 -225 400
-443 19 -74 19 -127 -1 -217 -61 -277 -289 -465 -630 -522 -84 -14 -166 -16
-531 -13 l-433 3 -37 -74 c-35 -68 -38 -81 -38 -158 0 -72 3 -87 19 -99 29
-21 866 -20 1051 1 335 38 559 137 751 330 63 64 91 102 126 171 88 175 118
306 118 517 0 159 -14 227 -79 376 -54 123 -103 194 -200 291 -103 102 -198
162 -329 206 -170 57 -291 64 -1132 63 -573 0 -712 -2 -744 -14z"/>
<path d="M2361 2814 c-28 -15 -64 -41 -78 -58 -14 -18 -74 -125 -134 -237 -98
-184 -109 -209 -109 -256 l0 -53 388 0 389 0 61 31 c66 33 156 121 179 176 8
20 13 71 13 135 0 89 -4 110 -25 153 -30 63 -41 76 -89 109 l-39 26 -251 0
c-252 0 -252 0 -305 -26z"/>
</g>
</svg>
