<?xml version="1.0" standalone="no"?>
<!DOCTYPE svg PUBLIC "-//W3C//DTD SVG 20010904//EN"
 "http://www.w3.org/TR/2001/REC-SVG-20010904/DTD/svg10.dtd">
<svg version="1.0" xmlns="http://www.w3.org/2000/svg"
 width="55" height="55" viewBox="0 0 920.000000 512.000000"
 preserveAspectRatio="xMidYMid meet">

<g transform="translate(0.000000,512.000000) scale(0.100000,-0.100000)"
fill="#2f74c0" stroke="none">
<path d="M4220 5114 c-391 -16 -860 -77 -1159 -150 -399 -98 -664 -231 -730
-367 -19 -39 -21 -61 -21 -221 0 -209 4 -222 102 -310 228 -207 892 -368 1712
-417 260 -15 960 -6 1186 15 733 70 1274 217 1478 402 98 88 102 101 102 310
0 210 -7 233 -98 314 -214 191 -763 338 -1512 405 -167 15 -853 27 -1060 19z
m1337 -428 c269 -19 394 -32 564 -56 234 -34 351 -72 357 -117 11 -77 -443
-149 -1153 -184 -309 -15 -1141 -15 -1450 0 -676 33 -1130 102 -1159 176 -3 8
6 23 21 35 88 69 525 130 1153 160 282 13 1420 4 1667 -14z"/>
<path d="M2311 2187 c-1 -1593 -1 -1629 18 -1666 98 -191 574 -368 1226 -456
372 -50 536 -59 1045 -59 509 0 671 9 1045 59 651 88 1128 265 1225 456 20 38
20 67 19 1666 0 997 -4 1616 -10 1597 -5 -18 -30 -55 -55 -83 -202 -225 -867
-398 -1734 -451 -212 -13 -768 -13 -980 0 -866 53 -1532 227 -1734 451 -25 28
-50 65 -55 83 -6 19 -10 -600 -10 -1597z m1139 414 c64 -5 146 -17 183 -27
l67 -18 0 -153 0 -152 -67 34 c-94 48 -192 68 -306 63 -104 -5 -156 -25 -201
-78 -20 -24 -26 -43 -26 -76 0 -39 6 -51 45 -93 38 -40 79 -65 241 -145 221
-108 288 -160 340 -263 28 -55 29 -64 29 -188 0 -122 -2 -133 -28 -187 -54
-111 -160 -188 -314 -230 -63 -17 -109 -21 -243 -22 -173 -1 -274 13 -383 54
l-52 20 0 160 c0 88 1 160 3 160 2 0 18 -11 35 -24 47 -36 152 -83 227 -102
47 -12 92 -15 165 -12 87 4 108 8 155 34 45 24 57 36 68 69 39 116 -17 176
-270 291 -166 75 -253 135 -308 211 -57 80 -73 143 -68 267 3 85 8 109 31 153
70 136 201 219 392 249 100 15 141 16 285 5z m1323 -2 c150 -14 269 -62 385
-157 99 -81 198 -253 228 -397 22 -107 22 -304 -1 -410 -46 -219 -173 -391
-358 -486 l-85 -43 60 -55 c34 -31 80 -67 103 -82 84 -54 235 -78 343 -55 l62
13 0 -137 0 -138 -75 -11 c-292 -43 -464 29 -719 302 l-105 114 -80 11 c-168
24 -304 93 -414 212 -139 151 -207 359 -194 596 8 134 29 218 82 329 54 111
126 200 208 258 171 122 317 157 560 136z m1217 -629 l0 -610 280 0 280 0 0
-140 0 -140 -450 0 -450 0 0 750 0 750 170 0 170 0 0 -610z"/>
<path d="M4535 2287 c-45 -15 -73 -34 -116 -76 -95 -96 -134 -209 -133 -386 1
-172 41 -281 135 -371 75 -70 129 -89 254 -89 89 0 106 3 157 28 136 67 208
215 208 428 0 185 -31 287 -116 378 -72 78 -131 104 -244 106 -62 2 -101 -3
-145 -18z"/>
</g>
</svg>
