<?xml version="1.0" standalone="no"?>
<!DOCTYPE svg PUBLIC "-//W3C//DTD SVG 20010904//EN"
 "http://www.w3.org/TR/2001/REC-SVG-20010904/DTD/svg10.dtd">
<svg version="1.0" xmlns="http://www.w3.org/2000/svg"
 width="55" height="55" viewBox="0 0 512.000000 512.000000"
 preserveAspectRatio="xMidYMid meet">

<g transform="translate(0.000000,512.000000) scale(0.100000,-0.100000)"
fill="#2f74c0" stroke="none">
<path d="M640 2560 l0 -1920 1920 0 1920 0 0 1920 0 1920 -1920 0 -1920 0 0
-1920z m3159 179 c61 -9 203 -52 228 -67 14 -9 -59 -259 -73 -254 -5 1 -49 17
-99 34 -84 30 -99 32 -220 33 -123 0 -133 -2 -188 -28 -75 -37 -109 -86 -115
-166 -9 -129 55 -186 343 -304 292 -119 410 -247 431 -467 16 -176 -71 -348
-229 -451 -185 -120 -516 -144 -772 -56 -98 34 -125 48 -125 64 0 8 14 68 32
133 l32 118 27 -14 c133 -69 353 -107 478 -84 156 28 231 104 231 233 0 130
-63 192 -284 278 -235 91 -343 161 -415 271 -58 85 -74 149 -69 267 3 82 8
106 35 164 71 150 215 254 403 292 80 16 263 18 349 4z m-929 -154 l0 -135
-250 0 -250 0 0 -730 0 -730 -160 0 -160 0 0 730 0 730 -247 2 -248 3 -3 133
-3 132 661 0 660 0 0 -135z"/>
</g>
</svg>
